<?xml version="1.0" standalone="yes"?>
<svg xmlns="http://www.w3.org/2000/svg" width="1024" height="1024">
<path style="fill:#ebceae; stroke:none;" d="M0 0L0 1024L23 1024L22 984L22.2901 906L23 697L21 0L0 0z"/>
<path style="fill:#04dbf8; stroke:none;" d="M21 0L22 143L23 143C29.7707 133.056 38.7923 117.075 51.9853 115.108C59.4616 113.993 69.169 119.702 75.9066 117.356C81.3054 115.477 85.3832 107.082 90 103.529C100.559 95.4037 111.89 96.9496 124 99C133.543 69.0529 171.176 43.722 202 50.6652C214.577 53.4982 225.838 67.7968 239 65.5355C263.671 61.2966 288.595 52.7198 313 46.8696C329.85 42.8304 349.073 38.8675 366 44.696C381.302 49.965 394.026 56.822 403.957 70C409.459 77.3011 413.819 93.5883 423.184 96.7214C438.889 101.976 455.407 100.382 471 107.981C488.299 116.413 500.804 132.385 518 141.244C529.203 147.015 554.118 154.095 558.561 167.001C563.025 179.966 547.037 191.183 537 195.2C509.685 206.131 472.487 214.941 443 212.911C424.487 211.636 405.893 203.832 387 206.185C376.441 207.5 367.029 214.456 357 217.564C340.362 222.72 321.331 223.79 304 223.996C265.166 224.458 227.798 211.338 189 213.039C170.01 213.872 150.975 221.382 132 223.714C92.8437 228.525 54.2359 219.222 22 197L22 305C40.6281 301.795 61.1261 289.606 80 290.055C94.1332 290.391 111.922 300.173 125 305.4C133.045 308.615 147.796 311.448 153.397 318.39C156.399 322.112 155 329.518 155 334L155 374L155 532C164.034 525.287 166.534 511.516 171.951 502C179.654 488.466 191.252 476.055 204 467.205C228.658 450.088 253.785 453.039 281 445.278C296.772 440.78 311.492 433.7 328 430.211C340.856 427.493 354.153 427.849 367 425.535C373.903 424.293 380.158 420.248 387 419.213C391.81 418.485 396.957 419.493 401.715 418.375C414.351 415.406 425.58 408.286 439 408C432.392 393.573 420.847 382.546 418 366C402.152 364.235 410.339 352.107 406.806 343C401.937 330.454 386.62 319.646 406 310C402.638 293.918 394.843 279.188 391.923 263C390.609 255.716 388.874 248.795 393.005 242C402.357 226.62 428.656 217.408 446 220.326C452.638 221.442 458.304 225.914 465 226.786C476.426 228.275 481.963 215.285 493 214.495C526.825 212.077 540.392 241.678 559.576 262.7C564.365 267.948 570.089 271.966 577 273.841C579.428 274.5 585.631 274.37 586.539 277.318C587.439 280.239 583.518 283.994 581.711 285.815C576.499 291.064 566.275 294.933 566.361 304.039C566.454 313.865 582.112 314.613 586.312 323C590.73 331.823 584.368 338.033 581.917 346C580.635 350.17 581.977 354.68 580.695 359C577.409 370.08 567.022 373.057 557 375L556 394C562.073 396.467 566.28 401.006 572 403.826C581.473 408.495 595.599 411.671 606 414.112C628.977 419.504 652.611 417.44 676 418.015C682.971 418.186 689.175 421.355 696 421.907C705.047 422.637 713.977 421.001 723 421L728 341C701.452 350.895 684.257 315.684 681.209 294C680.237 287.081 681.57 279.946 680.826 273C679.978 265.078 674.248 251.671 678.194 244.094C681.918 236.942 697.637 233.909 705 234C706.223 228.357 704.171 222.677 706.264 217C710.149 206.463 726.694 198.448 737 196C737 172.446 746.279 150.812 745.996 127C745.811 111.434 741.393 96.4295 741.015 81C740.734 69.5332 745.261 59.2665 744.985 48C744.567 30.9138 741.071 17.1816 745 0L21 0z"/>
<path style="fill:#1f1d24; stroke:none;" d="M737 196C726.902 197.514 709.985 205.912 706.264 216C704.109 221.841 705.67 228.005 705 234C698.039 233.534 681.978 236.565 678.18 243.189C674.408 249.766 678.926 264.006 680.335 271C684.254 290.459 679.878 307.752 692.891 325C701.636 336.59 712.216 348.922 728 341L723 421C714.034 421 704.952 422.901 696 421.816C689.513 421.029 683.663 418.178 677 418.015C653.611 417.44 629.977 419.504 607 414.112C596.599 411.671 582.473 408.495 573 403.826C566.824 400.781 562.873 396.012 556 394L557 375C566.931 373.718 577.473 370.805 580.695 360C582.062 355.417 580.799 350.379 582.363 346C585.25 337.92 590.794 330.919 586.312 322.001C582.357 314.134 566.685 313.477 566.708 304.039C566.735 292.497 589.737 287.574 587.168 277.318C586.423 274.344 580.359 274.481 578 273.841C571.127 271.976 565.11 267.952 560.349 262.7C541.311 241.694 526.274 210.14 492 214.365C482.035 215.593 476.007 227.609 466 226.747C459.31 226.171 453.596 221.435 447 220.326C429.674 217.411 401.108 225.505 392.442 242C388.841 248.855 390.47 255.826 391.751 263C394.628 279.118 401.458 294.301 406 310C385.084 317.315 402.754 332.613 406.537 344C409.599 353.217 402.507 365.152 418 366C419.593 381.897 430.376 395.386 439 408C425.219 408.116 413.884 415.652 400.83 418.12C371.925 423.587 341.848 426.263 313 433.475C301.448 436.363 291.099 442.113 280 445.278C251.831 453.311 226.202 450.235 201 468.64C189.32 477.171 178.198 489.122 171.398 502C166.069 512.092 162.962 523.601 155 532L155 376L155 335C155 330.424 156.527 322.389 153.972 318.39C149.782 311.832 134.915 308.966 128 306.2C113.962 300.585 95.1991 290.234 80 290.018C70.5279 289.884 60.9715 294.303 52 296.964C37.9334 301.135 22 299.294 22 317L23 317C23.5692 309.627 29.9516 308.762 36 306.586C49.8078 301.619 64.6196 298.789 79 296C79 351.901 75.5931 408.134 78.0394 464C79.0972 488.159 77.1162 512.685 78.3218 536.746C79.2156 554.585 82.1571 576.397 78.7253 594C77.3595 601.006 71.0264 606.423 67.0386 612C55.338 628.364 40.9677 642.552 37 663L36 663L36 658L35 658L35 664L34 664L25 662C25.001 652.97 23.6792 641.815 25.9012 633.048C26.9619 628.863 32.3648 627.372 34.9722 631.315C39.2608 637.799 34.4278 649.744 36 657L37 657C37.4761 650.968 42.9635 632.437 37.3966 628.028C34.4495 625.694 27.5648 627 24 627L24 602L40 603L37.5664 565.148L25.6034 560.397L24 542C33.6442 542.727 33.0707 539.659 33 531L32 531C31.949 535.315 27.8342 543.371 26.2284 534.98C24.4935 525.914 26 515.229 26 506L32 507L25 503L25 481L41 482L42 451C33.0927 451 23.1365 453.546 23 442L22 442L23 877L38 878L34 864L33 864L33 873C21.2131 872.614 25 856.563 25 848C25 844.634 24.0341 839.26 26.0278 836.323C27.9318 833.517 30.6454 834.816 33 836L34 836L37 831L24 833L24 810C27.5257 810 33.6607 811.133 36.3966 808.397C39.5372 805.256 38 797.062 38 793C38 780.618 41.0772 769.204 25 771L24 725L36 722C39.296 748.08 49.0194 771.52 60.7593 795C65.9324 805.346 76.3447 816.697 78.5316 828C80.0464 835.829 78.571 844.118 78.571 852C78.571 872.388 78.9308 892.643 78.0394 913C76.4254 949.858 77.7605 987.154 77 1024L81 1024L82 830C87.0359 835.064 96.134 841.718 97.6559 849.015C99.1781 856.314 93.84 871.261 99.0278 877.218C100.812 879.267 104.674 878.128 107 878.039C114.563 877.747 125.291 879.896 131 874L132 874L148.397 893L149 933L149 1024L154 1024L154 896C175.937 910.508 194.616 929.659 212.17 948.999C218.086 955.517 226.546 959.34 231 967C198.775 967 186.534 994.936 184 1024L189 1024C194.232 1001.18 198.206 971.013 228 972.911C232.449 973.195 235.979 972.854 240 975L241 975L254 975L256 985L263 986C266.83 991.908 284.849 989.325 291 988.325C306.2 985.852 326.018 987.036 338.255 997.835C345.263 1004.02 349.24 1023.32 358 1024C357.167 1013.81 351.683 999.611 342 995C350.771 968.035 355.542 939.947 364.646 913C367.402 904.841 371.438 887.49 379.213 882.712C383.211 880.255 395.445 887.403 400 888.795C418.89 894.565 439.464 896.512 459 898.845C510.077 904.944 561.401 890.791 610 877C625.246 913.302 636.906 950.317 648.653 988C651.176 996.096 653.541 1022.36 663 1024L650.909 977L620 883C636.901 885.136 653.307 881.355 670 879.159C681.8 877.607 694.775 877.205 706 873L696 1024L702 1024C702 990.363 705.344 955.535 708.159 922.004C709.437 906.782 715.205 885.741 712 871C722.247 870.163 731.28 865.742 741 862.909C761.213 857.017 782.718 850.671 801 840L810 1024L815 1024L807.089 903L804 839L854 817L853 1024L858 1024C858 975.324 859 926.726 859 878L859 835C859 829.174 857.41 820.554 859.603 815.093C862.34 808.281 875.157 804.854 881 801C881.953 805.001 880.415 813.287 883.028 816.357C886.689 820.659 906.874 814.966 912 814C912.003 788.55 913.044 764.843 934 747L934 774L934 832L933 1024L937 1024C933.917 972.002 938 919.084 938 867C938 841.062 939.618 814.846 938.985 789C938.648 775.239 936.121 759.6 937.589 746C939.021 732.731 958.694 725.783 958.981 711C959.236 697.841 953.872 682.767 948.36 671C945.683 665.287 939.949 658.361 939.403 652C936.034 612.792 941.466 571.541 940.996 532C940.065 453.723 938 375.139 938 297L997 312C998.779 301.331 968.109 299.42 960 297.714C952.622 296.161 944.373 291.133 937 290.745C933.388 290.554 929.514 293.163 926 293.988C911.336 297.431 897.276 303.579 883 308.333C874.437 311.185 859.362 313.726 853.643 321.39C851.271 324.568 852.999 331.207 853 335C853.005 347.406 853.437 359.89 853.116 372.286C851.791 423.454 853 474.812 853 526L836.76 514.722L816.797 483L802.965 460L798.911 419L794 338C805.264 338.232 820.604 343.59 829.985 335.671C849.781 318.957 847.444 291.687 850.424 269C851.345 261.994 855.543 246.456 851.821 240.224C847.933 233.714 833.793 232.555 827 232C829.932 217.739 822.091 205.381 809 198.67C803.62 195.912 792.346 197.361 791.148 189.981C789.485 179.731 790.623 168.402 789.911 158C788.59 138.716 786.54 119.382 787.015 100C787.204 92.254 789.71 84.7208 789.957 77C790.253 67.7331 788.212 58.2879 788.014 49C787.663 32.4843 789.079 16.4535 787 0L783 0C783.199 24.0939 785.483 47.9974 785.946 72C786.139 81.9804 783.123 91.9907 783.004 102C782.678 129.383 786.739 156.695 787.896 184C788.056 187.773 786.19 191.265 786.333 194.945C786.568 201.008 794.866 199.786 799 200.439C808.602 201.955 828.021 214.479 822.421 226.852C820.063 232.061 805.002 229 800 229C777.716 229 755.355 230 733 230C728.453 230 710.256 233.301 708.515 228.732C700.916 208.791 739.622 206.372 740.906 191.999C742.324 176.12 747.82 160.914 748.911 145C750.345 124.08 745.941 104.57 745.039 84C744.534 72.4763 748.305 62.2071 748.737 51C749.419 33.2826 743.344 17.8373 749 0C743.27 0.991882 742.681 6.89722 742.171 12C740.977 23.9321 744.055 35.2728 744.91 47C745.787 59.0377 740.496 70.5845 741.039 83C742.052 106.129 747.639 127.493 744.816 151C742.953 166.507 737 180.014 737 196z"/>
<path style="fill:#9706f7; stroke:none;" d="M749.564 1.02777C743.106 5.81018 745.516 27.1064 746.59 34C749.101 50.1161 744.994 63.9356 745 80C745.004 91.5264 748.944 102.513 748.999 114C749.104 135.809 747.273 154.736 742.668 176C741.409 181.814 742.802 190.798 739.972 195.895C733.156 208.171 704.75 207.069 708.152 227.887C709.093 233.647 728.019 230 733 230C754.723 230 776.262 229 798 229C803.091 229 817.532 232.003 821.397 228.971C825.403 225.829 821.91 218.33 820.201 215C816.744 208.267 811.721 202.886 804 201.315C799.166 200.331 787.273 201.757 786.643 194.981C786.31 191.403 788.043 187.715 787.841 184C786.574 160.689 783.586 137.333 783.015 114C782.473 91.8995 784.865 71.0388 783.093 49C781.908 34.2572 787.364 17.4683 782.697 3.14813C781.052 -1.90027 753.703 -2.03735 749.564 1.02777z"/>
<path style="fill:#3814da; stroke:none;" d="M782 0L783 1L782 0z"/>
<path style="fill:#04dbf8; stroke:none;" d="M787 0C791.192 53.1063 786.269 105.819 789.911 159C790.62 169.359 789.421 180.75 791.148 190.942C792.23 197.327 804.167 196.459 809 199.21C821.872 206.537 828.891 217.666 827 232C834.131 232.96 846.632 233.929 851.257 240.224C855.429 245.902 851.302 261.316 850.424 268C847.352 291.39 849.524 318.619 828.996 335.671C819.776 343.33 805.063 338.092 794 338C794 358.024 797.085 378.004 797.961 398C798.822 417.672 797.023 441.028 802.633 460C805.065 468.224 811.122 474.865 815.575 482C822.203 492.62 827.625 506.771 836.76 515.49C840.971 519.509 848.084 522.581 853 526C853 474.755 851.404 423.206 853.255 372C853.686 360.079 853 347.95 853 336C853 332.114 851.628 325.609 853.773 322.213C859.619 312.958 879.33 309.902 889 306.667C902.755 302.064 922.407 290.617 937 291.248C943.326 291.522 950.799 295.612 957 297.244C970.037 300.676 983.747 303.43 997 306L998 207C956.931 207 908.385 211.836 873.001 187.096C851.906 172.347 869.625 135.617 888 126.912C899.564 121.434 903.902 127.35 915 128.262C919.258 128.612 923.646 126.199 928 126C931.294 112.308 945.41 110.803 956.996 115.26C960.166 116.48 962.734 120.467 966.089 120.76C974.808 121.521 989.645 114.844 998 112L997 72L997 0L787 0z"/>
<path style="fill:#ebceae; stroke:none;" d="M997 0L998 122C991.982 121.24 986.029 120.39 980 121.669C975.488 122.626 970.533 125.914 966.004 126.049C962.533 126.152 960.525 122.916 957.83 121.278C952.844 118.245 941.631 116.107 936.343 119.318C932.666 121.551 932.434 126.624 928.811 129.066C924.355 132.069 919.195 131.39 917 137C911.407 133.552 905.006 128.294 898 128.538C876.533 129.283 863.629 159.851 870.742 177.985C873.836 185.873 886.607 190.284 894 192.656C917.027 200.043 940.955 202 965 202L989 202C991.75 202.006 996.228 201.403 997.802 204.318C1000.05 208.471 997.237 216.49 997.039 221C996.429 234.945 997 249.041 997 263C997 315.315 996.125 367.801 997.018 420C1000.37 615.951 997 811.688 997 1008L992 1008L992 1024L1008 1024L1008 1008L1024 1008L1024 0L997 0z"/>
<path style="fill:#3814da; stroke:none;" d="M747 4L748 5L747 4M783.333 7.66669L783.667 8.33331L783.333 7.66669M746 10L747 11L746 10M783.333 28.6667L783.667 29.3333L783.333 28.6667M746 33L747 34L746 33M747.333 39.6667L747.667 40.3333L747.333 39.6667z"/>
<path style="fill:#1f1d24; stroke:none;" d="M124 99C111.745 95.7577 98.2766 95.8165 88.0008 104.329C83.8907 107.733 80.6994 114.692 75.9066 116.879C65.7175 121.528 54.2802 110.38 43 118.613C35.414 124.15 24.9755 134.65 22.4336 144C19.9327 153.199 22 165.482 22 175C22 181.49 19.9416 192.325 23.5995 197.961C29.7489 207.434 46.0798 211.468 56 215.712C84.5066 227.909 119.146 226.671 149 221.385C162.551 218.986 176.223 213.643 190 213.039C225.184 211.497 258.907 223.579 294 223.996C312.724 224.219 333.796 224.058 352 219.265C364.128 216.073 375.544 207.736 388 206.185C409.255 203.539 430.81 213 452 213C479.959 213 514.207 205.146 539.996 194.396C550.006 190.223 562.425 179.147 558.887 167.001C555.162 154.208 530.84 147.305 520 141.755C502.434 132.762 489.622 116.571 472 107.981C456.707 100.528 441.063 100.714 425.04 96.9413C414.906 94.5551 410.177 77.619 404.7 70C395.108 56.6575 382.182 49.9236 367 44.696C324.466 30.0507 278.532 61.814 237 65.6597C225.557 66.7192 214.31 53.2128 203 50.6652C177.811 44.9913 159.725 55.6991 142.09 72.8303C134.998 79.7195 125.94 88.9655 124 99z"/>
<path style="fill:#ebceae; stroke:none;" d="M126 106C105.068 99.0227 87.6827 104.27 78 126C57.7573 117.586 34.9453 119.718 27.6381 145C25.3826 152.804 27 162.918 27 171C27 177.665 24.8945 188.633 27.6034 194.776C29.147 198.277 34.8396 200.477 38 202.258C48.7059 208.293 62.2041 212.73 74 216.23C96.6912 222.964 126.058 221.517 149 216.64C163.653 213.525 177.858 207.703 193 207.039C222.828 205.731 251.327 217.643 281 217.996C300.651 218.23 322.702 220.417 342 216.331C357.899 212.965 372.911 202.715 389 201.177C409.24 199.244 429.863 207.968 450 208C477.123 208.044 508.451 200.106 534 191.135C541.996 188.327 556.487 179.565 553.562 169.089C550.48 158.049 526.27 151.11 517 146.219C501.226 137.896 489.328 123.608 474 115.275C456.596 105.813 439.099 107.353 421.043 101.721C413.27 99.2972 408.293 85.3924 404.135 79C396.033 66.5441 385.135 56.6844 371 51.6991C328.109 36.572 280.91 63.1335 239 70.5363C223.665 73.2451 213.26 58.0207 199 54.598C167.639 47.0705 135.234 78.4817 126 106z"/>
<path style="fill:#3814da; stroke:none;" d="M748 47L749 48L748 47M783 50L783 53L784 53L783 50z"/>
<path style="fill:#9706f7; stroke:none;" d="M201 55L202 56L201 55z"/>
<path style="fill:#3814da; stroke:none;" d="M381 56L382 57L381 56M785.333 70.6667L785.667 71.3333L785.333 70.6667M785 74L785 78L786 78L785 74M783 93L784 94L783 93M783 95L784 96L783 95M747 100L748 101L747 100M748 106L749 107L748 106z"/>
<path style="fill:#1f1d24; stroke:none;" d="M928 126C923.654 126.093 919.235 128.162 915 127.836C903.542 126.952 898.915 121.268 887 126.912C870.22 134.861 865.32 150.018 864.986 167C864.824 175.245 864.55 181.827 872.005 187.096C907.649 212.288 957.554 207 999 207C997.505 198.039 972.474 202 965 202C942.646 202 920.553 200.065 899 193.859C890.076 191.289 878.431 187.486 872.434 179.907C869.311 175.961 869.992 170.723 870 166C870.026 150.105 879.223 131.543 897 128.998C904.419 127.935 910.705 134.353 917 137C919.9 132.142 924.255 132.184 928.811 129.582C932.962 127.211 933.034 121.659 937.189 119.318C948.44 112.977 955.855 125.582 965.015 126.47C969.65 126.919 975.458 122.986 980 121.899C986.138 120.43 991.849 121.515 998 122L997 112C988.434 114.916 975.353 120.659 966.325 120.432C963.329 120.357 960.818 116.365 957.985 115.26C946.51 110.785 930.2 111.394 928 126z"/>
<path style="fill:#3814da; stroke:none;" d="M783.333 118.667L783.667 119.333L783.333 118.667M784.333 137.667L784.667 138.333L784.333 137.667M748.333 148.667L748.667 149.333L748.333 148.667M746 160L747 161L746 160M745 165L746 166L745 165M786 165L787 166L786 165M744 169L745 170L744 169M787.333 181.667L787.667 182.333L787.333 181.667M741 183L742 184L741 183M740.333 195.667L740.667 196.333L740.333 195.667M788.667 199.333L789.333 199.667L788.667 199.333M798.667 200.333L799.333 200.667L798.667 200.333M811 204L812 205L811 204M711 216L712 217L711 216M708 221L709 222L708 221M823.333 221.667L823.667 222.333L823.333 221.667M751 229L751 230L758 230L751 229M777 229L777 230L787 230L777 229M717 230L718 231L717 230M748 234L748 235L760 235L748 234z"/>
<path style="fill:#9706f7; stroke:none;" d="M835 307C786.158 282.045 739.6 300 689 304C687.399 315.968 703.763 336.82 716 337.891C730.278 339.141 744.663 330.367 759 330.015C775.527 329.609 791.529 333.994 808 334C813.134 334.002 820.12 335.201 824.96 333.258C830.75 330.933 833.721 323.191 836.258 318C843.577 303.021 844.921 290.463 845.001 274C845.041 265.651 850.683 248.594 845.972 241.303C843.901 238.097 838.41 237.801 835 237.275C825.28 235.773 815.717 235.755 806 234.83C788.611 233.175 771.368 234.56 754 234.985C739.263 235.346 724.563 234.41 710 237.197C703.242 238.49 688.621 238.918 683.603 243.843C679.728 247.648 682.062 262.344 684.032 266.852C685.818 270.938 691.302 270.128 695 269.961C706.304 269.448 717.153 264.122 728 261.374C755.108 254.507 780.668 251.313 808 259.141C815.865 261.394 828.142 263.943 832.991 271.174C837.73 278.243 836.495 298.824 835 307z"/>
<path style="fill:#3814da; stroke:none;" d="M803 234L803 235L812 235L803 234M722 235L722 236L725 236L722 235M821.667 235.333L822.333 235.667L821.667 235.333M713 236L714 237L713 236M829.667 236.333L830.333 236.667L829.667 236.333M708 237L709 238L708 237M836 237L837 238L836 237M699 239L700 240L699 239M684.667 242.333L685.333 242.667L684.667 242.333M762 254L763 255L762 254M764 254L764 255L767 255L764 254M779.667 254.333L780.333 254.667L779.667 254.333M784 254L785 255L784 254M791 255L792 256L791 255M749 256L749 257L752 257L749 256M743.667 257.333L744.333 257.667L743.667 257.333M802 257L803 258L802 257z"/>
<path style="fill:#04dbf8; stroke:none;" d="M686 275L687 281C707.961 279.17 727.182 267.503 748 265.173C759.038 263.937 779.985 266.346 789 260L792 263L792 260C783.349 256.116 770.174 257.589 761 258.715C735.65 261.829 711.319 275 686 275z"/>
<path style="fill:#3814da; stroke:none;" d="M790 260L792 263L789 260C777.934 266.163 758.586 263.482 746 265.3C725.892 268.205 707.162 278.022 687 281L687 277L686 277L686 293C718.381 285.022 751.918 277.789 785.286 276.988C798.305 276.676 811.262 284.295 824 283L828 286L828 271L814 267C810.698 261.584 802.704 261.406 797 260L798 263L797 263L796 260L790 260z"/>
<path style="fill:#04dbf8; stroke:none;" d="M794 260L795 261L794 260M796 260L798 263L796 260M798 260L799 261L798 260z"/>
<path style="fill:#ebceae; stroke:none;" d="M448 263L450 265L450 263L448 263z"/>
<path style="fill:#04dbf8; stroke:none;" d="M787 263L788 264L787 263z"/>
<path style="fill:#3814da; stroke:none;" d="M448 264L449 265L448 264M449 265L450 266L449 265z"/>
<path style="fill:#ebceae; stroke:none;" d="M414 361L415 361L415 353C420.976 357.844 421.803 366.184 424.72 373C431.945 389.887 439.669 407.297 458 414.536C468.168 418.55 476.52 417.151 487 417.018C507.157 416.764 536.79 418.44 550.258 398.829C555.079 391.81 548.605 376.82 553.618 371.603C558.176 366.861 568.15 369.787 573.606 363.787C578.406 358.508 575.905 352.207 577.418 346C580.22 334.506 588.677 318.81 569 315.882C557.887 314.229 543.781 328.276 551.703 338.816C554.418 342.427 564.479 346.58 564.967 351.184C565.307 354.396 561.221 356.576 559 358L561 353C557.86 353 558.071 348.28 555 346.5C532.822 333.643 548.957 298.109 529 281.333C519.897 273.681 503.796 262.668 491 265.333C484.719 266.642 477.6 273.611 472 274C463.849 274.566 455.367 266.772 446 268.333C415.997 273.334 410.706 313.401 413 337C413.88 346.05 408.165 352.472 414 361z"/>
<path style="fill:#04dbf8; stroke:none;" d="M782 265L783 266L782 265M814.333 265.667L814.667 266.333L814.333 265.667M804 266L805 267L804 266M816.667 266.333L817.333 266.667L816.667 266.333z"/>
<path style="fill:#3814da; stroke:none;" d="M845 266L846 267L845 266z"/>
<path style="fill:#04dbf8; stroke:none;" d="M818 267L818 268L821 268L818 267z"/>
<path style="fill:#3814da; stroke:none;" d="M703 268L704 269L703 268z"/>
<path style="fill:#04dbf8; stroke:none;" d="M807 268L808 269L807 268M821.667 268.333L822.333 268.667L821.667 268.333M811 269L812 270L811 269M825 270L826 271L825 270M828 271L830 288L831 288C830.248 281.534 832.867 276.277 828 271z"/>
<path style="fill:#3814da; stroke:none;" d="M834 273L835 274L834 273z"/>
<path style="fill:#04dbf8; stroke:none;" d="M797.667 278.333L798.333 278.667L797.667 278.333M800 278L801 279L800 278z"/>
<path style="fill:#1f1d24; stroke:none;" d="M824 282L826 284L824 282z"/>
<path style="fill:#04dbf8; stroke:none;" d="M804 289L804 290L809 291L808 293L825 297L804 289z"/>
<path style="fill:#3814da; stroke:none;" d="M834 291L834 294L835 294L834 291M765 292L766 293L765 292z"/>
<path style="fill:#1f1d24; stroke:none;" d="M483 317L480 320L513 321L507 312L508 314L509 314L520 293C509.888 296.08 503.964 304.067 492 304.911C488.451 305.161 481.534 303.999 479.223 307.564C477.035 310.939 480.979 314.724 483 317z"/>
<path style="fill:#3814da; stroke:none;" d="M789 293L790 294L789 293M746 294L747 295L746 294M741 295L742 296L741 295M22 328L23 328L23 322L24 322L24 339C28.1245 338.966 35.0797 336.648 38.6821 339.029C43.314 342.09 42.6369 366.235 39.9722 370.867C37.2551 375.589 31.3804 374.217 27.3171 376.653C22.4517 379.57 23.669 390.497 25 395L37.7716 391.694L40.9992 401L42 425L22 429C22 433.842 20.375 446.632 24.6034 449.972C28.1686 452.789 37.6317 451 42 451L41 482L25 481L25 503L32 505C29.6393 516.334 40.1238 542.502 24 542L25.6034 560.972L37.5664 566.059L40 603L24 602L24 627C27.6407 627 33.5155 625.915 36.6821 628.028C44.0796 632.964 36.1506 655.703 36 663L37 663C42.1017 643.331 54.9796 630.193 66.3441 614C70.4743 608.115 77.2964 602.329 78.7253 595C82.2855 576.739 79.318 554 78.635 535.425C77.7493 511.338 79.0947 487.101 78.0394 463C75.6086 407.488 79 351.563 79 296L37 305.862L24.0131 311.649L22 328M82 296L82 593C87.4532 589.8 96.6982 580.188 98.4823 574C99.6004 570.122 96.5993 564.605 99.6073 561.377C102.436 558.341 105.298 561.794 107 564L138 543.799L149.397 534.907L150 520L150 487L150 373L150 336L148.972 321.418L132 313.575L82 296M735.667 296.333L736.333 296.667L735.667 296.333M728.667 297.333L729.333 297.667L728.667 297.333M937 653L938 653L935 297C916.436 298.861 895.336 309.069 878 315.867C872.386 318.068 863.419 319.113 859.603 324.214C856.93 327.788 858 333.803 858 338L858 373L858 488L858 519C858 523.573 856.931 529.793 859.028 534C863.236 542.444 872.359 550.382 878.13 558C880.174 560.699 882.679 565.248 886.171 566.212C892.88 568.066 905.763 557.614 910.682 566.148C917.464 577.916 909.332 598.146 911.558 611C914.15 625.971 929.951 639.715 937 653M938 297C938 375.534 940.061 454.385 940.996 533C941.464 572.348 936.466 612.879 939.183 652C939.634 658.491 945.114 665.25 947.891 671C953.407 682.418 958.78 697.169 958.945 710C959.136 724.871 939.487 731.758 937.393 745.001C936.423 751.132 939.259 757.778 938.907 764C937.39 790.796 938 818.017 938 845C938 890.703 937 936.274 937 982C937 992.371 936.325 1002.72 936.907 1013C937.059 1015.69 935.671 1020.05 937.269 1022.4C938.636 1024.41 941.92 1023.98 944 1024L944 1008L997 1008L997 934L996 934L996 938C990.69 938 977.583 940.376 973.603 936.397C969.011 931.804 971.958 914.227 972.001 908C972.02 905.275 971.729 901.755 974.318 900.028C979.72 896.423 990.869 899.983 997 900L997 877L964 877L953.179 874.682L951.759 859.714L951 829L981 833.424L992.297 835.603L994.042 846L995 871L997 871L997 789L996 789L996 798L995 798C995.004 792.745 999.203 782.674 995 779C995.287 784.286 994.06 789.659 993.996 795C993.946 799.214 994.591 807.04 992.008 810.566C989.342 814.205 975.542 814.747 973.067 810.682C970.919 807.154 973 798.18 973 794C973 788.887 970.23 777.552 973.029 773.318C977.565 766.454 992.018 773.281 997 776L997 604C991.512 606.326 978.407 608.294 973.603 603.401C971.543 601.302 972.005 597.68 972 595C971.985 587.963 970.02 573.323 974.028 567.318C976.604 563.457 991.32 563.414 993.548 567.724C995.577 571.649 994 579.635 994 584C994 590.062 994.876 595.97 995 602L996 602L997 540L996 540C993.872 548.215 978.218 550.293 972.279 544.682C968.115 540.748 969 534.181 969 529L970 529L973 532L968 520L960 520L967 542C947.299 546.799 949.807 527.134 951.4 513.015C951.755 509.863 949.531 502.899 951.657 500.618C954.56 497.505 962.75 500.512 966 501.775C975.916 505.631 986.724 505.176 997 510L997 426C991.458 427.729 976.347 431.14 971.603 426.397C966.339 421.132 970 399.268 970 392L996 396L995 409L997 393L996 347L995 347C992.231 356.368 993.789 368.419 995 378C988.583 377.947 977.215 378.052 972.742 372.582C968.599 367.514 968.651 340.113 975.059 337.118C981.271 334.215 991.23 341.064 997 343C997 335.915 1000.22 318.317 995.972 312.564C993.321 308.976 985.02 308.904 981 307.846C967.106 304.186 952.33 298.171 938 297M722.667 298.333L723.333 298.667L722.667 298.333M835 298L835 302L836 302L835 298M814 300L815 301L814 300M843 300L844 301L843 300M708.667 301.333L709.333 301.667L708.667 301.333M820 302L821 303L820 302M827 303L828 304L827 303z"/>
<path style="fill:#1f1d24; stroke:none;" d="M417 317L439 314.311L459 314C459.557 306.532 454.232 305.884 448 304.666C438.96 302.899 421.209 308.463 417 317z"/>
<path style="fill:#3814da; stroke:none;" d="M830 304L831 305L830 304M835 304L836 305L835 304M832 305L833 306L832 305M688 306L689 307L688 306M841 306L842 307L841 306M689 311L690 312L689 311M838 313L839 314L838 313z"/>
<path style="fill:#ebceae; stroke:none;" d="M409 339L406 315C394.319 318.458 400.144 335.699 409 339M485 318C489.735 319.36 498.102 319.47 501 315L485 318M407.333 316.667L407.667 317.333L407.333 316.667z"/>
<path style="fill:#1f1d24; stroke:none;" d="M430 324L454 322L454 320C446.983 317.372 434.46 316.683 430 324M413 319L413 321L415 321L415 319L413 319z"/>
<path style="fill:#ebceae; stroke:none;" d="M407.333 320.667L407.667 321.333L407.333 320.667z"/>
<path style="fill:#1f1d24; stroke:none;" d="M23 322L23 397L23 430L42 425C38.8331 411.698 47.9515 382.08 25 395C23.7908 389.921 22.5544 379.642 28.1481 376.653C31.8075 374.697 37.5016 375.642 39.9722 371.721C43.6597 365.87 41.0943 353.627 41.0039 347C40.9707 344.571 41.5784 340.754 39.3966 339.028C35.9042 336.264 28.1118 338.915 24 339L23 322z"/>
<path style="fill:#3814da; stroke:none;" d="M829 329L830 330L829 329z"/>
<path style="fill:#1f1d24; stroke:none;" d="M101.228 331.028C96.4626 333.932 98 342.315 98 347C98 352.577 95.4394 367.022 99.767 371.196C102.813 374.134 109.031 374.92 113 375.87C116.204 376.636 121.475 378.164 124.436 375.972C128.241 373.156 127 365.076 127 361C127 345.923 128.614 337.157 113 331.786C109.498 330.582 104.736 328.89 101.228 331.028z"/>
<path style="fill:#3814da; stroke:none;" d="M753 330L753 331L756 331L753 330M772 330L772 331L775 331L772 330z"/>
<path style="fill:#9706f7; stroke:none;" d="M407 331L408 332L407 331z"/>
<path style="fill:#3814da; stroke:none;" d="M748 331L749 332L748 331M828 331L829 332L828 331z"/>
<path style="fill:#1f1d24; stroke:none;" d="M907.941 332.612C902.599 332.727 885.146 335.237 882.603 340.419C879.041 347.679 881.983 362.929 882 371C882.006 373.817 881.294 378.89 885.148 379.382C889.795 379.975 908.41 376.661 910.972 372.697C913.545 368.715 912 360.568 912 356C912 351.44 913.571 332.491 907.941 332.612z"/>
<path style="fill:#3814da; stroke:none;" d="M705 333L706 334L705 333M739 333L740 334L739 333M798 333L799 334L798 333z"/>
<path style="fill:#04dbf8; stroke:none;" d="M102 334L102 359L103.603 368.143L122 372C122 364.014 125.223 347.121 120.972 340.275C117.67 334.956 107.568 334.047 102 334z"/>
<path style="fill:#3814da; stroke:none;" d="M707 334L708 335L707 334M735 334L736 335L735 334z"/>
<path style="fill:#ebceae; stroke:none;" d="M796 454C789.899 428.386 791 399.181 791 373C791 364.954 790 357.052 790 349C790 346.001 790.874 341.132 788.972 338.564C786.785 335.611 781.244 336.018 778 335.576C767.369 334.129 756.532 335.192 746 336.92C742.553 337.485 736.272 337.382 734.028 340.514C730.93 344.838 732.316 353.905 731.714 359C729.806 375.162 724.488 401.15 729.434 416.867C731.202 422.486 744.033 423.555 749 425.164C768.43 431.461 779.838 442.615 796 454z"/>
<path style="fill:#9706f7; stroke:none;" d="M408 336L409 337L408 336z"/>
<path style="fill:#3814da; stroke:none;" d="M726 336L727 337L726 336z"/>
<path style="fill:#1f1d24; stroke:none;" d="M995 378L995 347L996 347L996 372C1001.32 359.332 998.561 341.897 985 337.913C981.832 336.982 977.286 335.277 974.148 337.042C971.216 338.692 971.061 342.014 971.005 345C970.881 351.574 968.099 368.239 972.742 373.301C977.375 378.351 988.721 377.983 995 378z"/>
<path style="fill:#3814da; stroke:none;" d="M722 337L723 338L722 337z"/>
<path style="fill:#04dbf8; stroke:none;" d="M886 341L887 374L907 371L904 368L904 367L907 367L907 337L886 341z"/>
<path style="fill:#1f1d24; stroke:none;" d="M499.019 338.746C489.053 342.597 497.299 355.55 505.956 351.847C515.849 347.615 507.96 335.292 499.019 338.746z"/>
<path style="fill:#3814da; stroke:none;" d="M717 338L718 339L717 338z"/>
<path style="fill:#04dbf8; stroke:none;" d="M502 341L501 343L502 341M974 341C972.141 348.807 969.515 368.248 979 371C979.116 364.717 978.548 355.716 983 351C982.996 357.565 980.866 364.859 988 368L987 364L988 364L988 370L985 368L984 371L983 371L983 368L982 368C982.903 373.199 986.511 372.674 991 373L990.089 351.999L989.382 343.988L974 341M25 372C42.9967 371.988 38 356.039 38 342C19.8573 342.05 26.1008 358.051 25 372M504 342L505 343L504 342z"/>
<path style="fill:#1f1d24; stroke:none;" d="M462 343C455.384 343.284 448.573 345.878 442 344.96C439.774 344.649 435.692 343.218 434.086 345.607C431.109 350.037 442.466 356.889 445.907 357.122C450.106 357.406 460.282 346.598 462 343M987.667 344.333L988.333 344.667L987.667 344.333z"/>
<path style="fill:#9706f7; stroke:none;" d="M414 357L415 358L414 357z"/>
<path style="fill:#1f1d24; stroke:none;" d="M984.667 358.333L985.333 358.667L984.667 358.333M988 358L986 361L988 358z"/>
<path style="fill:#9706f7; stroke:none;" d="M415 360L416 361L415 360z"/>
<path style="fill:#1f1d24; stroke:none;" d="M988 361L985 364L989 364L988 361M905 369L906 370L905 369M986 370L987 371L986 370M888 371L889 372L888 371M743 374L736 389C739.99 386.562 743.132 378.648 743 374M469 380L469 381L475 383C478.589 376.856 484.363 380.712 490 380L490 378C482.301 374.579 475.845 374.778 469 380z"/>
<path style="fill:#9706f7; stroke:none;" d="M997 376L997 408L998 408L997 376z"/>
<path style="fill:#1f1d24; stroke:none;" d="M742 387L742 388C746.577 387.314 750.629 386.167 753 382L742 387M100.228 386.742C94.5968 389.373 97.9922 400.152 98 405C98.0099 411.149 95.8688 422.113 98.6034 427.682C100.766 432.087 119.473 433.375 123.606 431.397C128.96 428.834 127 417.763 127 413C127 407.1 128.54 398.583 126.258 393.055C123.479 386.325 106.293 383.909 100.228 386.742z"/>
<path style="fill:#9706f7; stroke:none;" d="M431 388L432 389L431 388z"/>
<path style="fill:#04dbf8; stroke:none;" d="M101 390L102 415L103.603 423.821L123 425C123 418.114 126.439 397.716 121.397 392.742C117.119 388.522 106.474 390 101 390z"/>
<path style="fill:#1f1d24; stroke:none;" d="M894 390.464C878.917 393.136 882 406.902 882 419C882 422.464 880.679 429.532 883.028 432.382C885.461 435.335 900.279 433.209 903.999 432.556C915.882 430.471 912.062 413.095 911.997 404.001C911.972 400.559 912.898 394.279 910.255 391.6C907.128 388.43 897.971 389.76 894 390.464M970 392L970 418C970.001 420.617 969.25 425.109 971.603 426.972C975.129 429.765 992.199 429.245 995.397 426.107C997.739 423.808 996.675 419.903 996.71 417C996.747 413.832 997.504 411.191 995 409L996 396L970 392z"/>
<path style="fill:#9706f7; stroke:none;" d="M434 393L435 394L434 393z"/>
<path style="fill:#04dbf8; stroke:none;" d="M31 394C23.5625 400.701 26 415.746 26 425C43.0255 424.859 38 407.986 38 395L31 394M887 429L905.397 425.972L907 417L907 394C901.555 394 891.839 392.417 887.603 396.728C882.714 401.704 885.853 422.54 887 429M973 397L973 424L994 424L994 410L993 410C992.17 415.317 990.232 419.135 985 421C984.276 417.171 985.279 410.917 981 410L978 417L976 417L975 416L975 412L976 411L978 412L983 408L980 403L987 411C989.696 410.011 990.305 408.401 987 408C992.872 398.161 979.598 397.055 973 397z"/>
<path style="fill:#9706f7; stroke:none;" d="M438 399L439 400L438 399z"/>
<path style="fill:#1f1d24; stroke:none;" d="M485 402L477 405C479.847 405.338 499.608 408.43 496.894 401.199C495.398 397.214 485.491 398.093 485 402z"/>
<path style="fill:#3814da; stroke:none;" d="M484 401L485 402L484 401z"/>
<path style="fill:#ebceae; stroke:none;" d="M489 401L489 402L492 402L489 401M407 421C432.675 454.588 482.35 478.695 524 462.385C541.481 455.54 553.116 444.756 562.452 429C565.385 424.05 571.401 416.234 569.356 410.015C567.002 402.854 557.743 400.763 552 404.529C525.789 421.719 500.317 425.963 469 422.829C458.196 421.749 451.552 413.155 442 411.236C433.345 409.498 415.255 417.82 407 421z"/>
<path style="fill:#3814da; stroke:none;" d="M574 410L574 411L578 410L574 410z"/>
<path style="fill:#9706f7; stroke:none;" d="M374 824C386.107 829.819 383.528 854.533 384.242 866C384.48 869.823 381.949 875.158 385.322 878.005C396.658 887.577 419.184 886.459 433 889.2C471.523 896.842 506.954 892.509 545 886.354C565.432 883.049 585.871 879.827 606 873C602.863 864.711 597.643 857.625 594.96 849C589.031 829.938 589.357 801.497 596.823 783C600.437 774.045 606.326 765.924 615 761.327C619.606 758.886 626.588 758.546 630.211 754.686C639.594 744.693 646.589 728.512 654.508 717C668.902 696.075 686.29 676.879 697.573 654C700.576 647.913 698.556 642.348 698.089 636C696.985 621.025 695.403 605.885 693.424 591C688.836 556.478 690.519 519.719 692.039 485C692.771 468.3 697.262 444.918 690.121 429.105C686.456 420.99 672.169 423 665 423C645.86 423 627.24 423.3 608.424 419.231C598.684 417.125 588.101 410.323 578.058 410.448C574.3 410.495 573.614 414.029 572.66 417.001C570.129 424.881 567.367 432.157 562.56 439C551.08 455.345 531.731 467.327 512 470.41C483.538 474.857 457.811 468.235 435 451.127C424.744 443.435 413.08 427.94 401 423.854C390.63 420.347 381.529 426.855 372 429.571C362.782 432.199 352.495 431.709 343 433.246C329.803 435.382 317.005 437.602 304 440.873C299.824 441.924 292.319 443.003 290.071 447.225C287.48 452.09 294.434 461.978 295.66 467C299.755 483.77 302.082 499.731 301.999 517C301.871 543.608 299.498 572.731 295.246 599C293.004 612.853 286.453 634.415 290.954 648C295.32 661.175 302.767 673.379 308.457 686C321.224 714.321 334.577 742.614 349.262 769.996C353.648 778.175 362.873 781.789 368.39 789.015C376.661 799.845 374.001 811.412 374 824z"/>
<path style="fill:#3814da; stroke:none;" d="M579 410L579 411L582 411L579 410z"/>
<path style="fill:#9706f7; stroke:none;" d="M997 410L998 411L997 410z"/>
<path style="fill:#3814da; stroke:none;" d="M583.667 411.333L584.333 411.667L583.667 411.333M586 412L586 413L589 413L586 412z"/>
<path style="fill:#9706f7; stroke:none;" d="M997.333 412.667L997.667 413.333L997.333 412.667z"/>
<path style="fill:#3814da; stroke:none;" d="M573.333 413.667L573.667 414.333L573.333 413.667M590 413L591 414L590 413M593 414L594 415L593 414M595.667 415.333L596.333 415.667L595.667 415.333z"/>
<path style="fill:#1f1d24; stroke:none;" d="M979 416L979 417L982 418L982 415L979 416z"/>
<path style="fill:#3814da; stroke:none;" d="M572.333 416.667L572.667 417.333L572.333 416.667M599 416L600 417L599 416M996 416L996 419L997 419L996 416M602.667 417.333L603.333 417.667L602.667 417.333M605.667 418.333L606.333 418.667L605.667 418.333M608 419L609 420L608 419M610 419L611 420L610 419M571 420L572 421L571 420M614.667 420.333L615.333 420.667L614.667 420.333M620 421L620 422L624 422L620 421M22.3333 422.667L22.6667 423.333L22.3333 422.667M629 422L629 423L636 423L629 422M660 422L661 423L660 422M662 422L663 423L662 422M387.667 423.333L388.333 423.667L387.667 423.333M400.667 423.333L401.333 423.667L400.667 423.333M570.333 423.667L570.667 424.333L570.333 423.667M680 423L680 424L684 424L680 423M384 424L385 425L384 424M403 424L404 425L403 424M685.667 424.333L686.333 424.667L685.667 424.333M382 425L383 426L382 425M404 425L405 426L404 425M569.333 425.667L569.667 426.333L569.333 425.667M687 425L688 426L687 425z"/>
<path style="fill:#9706f7; stroke:none;" d="M997 425L997 504L998 504L998 450L997 425z"/>
<path style="fill:#ebceae; stroke:none;" d="M696 428C699.872 476.645 693.745 525.168 697.089 574C698.097 588.708 699.1 603.327 700.829 618C702.412 631.437 705.525 642.709 702 656L703 656L707 648C716.653 647.755 717.518 658.535 724.094 663.844C738.941 675.831 757.889 688.875 775 697.292C781.822 700.647 789.156 696.463 796 694.887C808.075 692.107 818.772 691.475 831 692C821.778 700.677 799.106 697.639 787 701.674C752.336 713.229 717.327 745.478 697.947 776C690.666 787.467 675.869 799.44 686 813C667.868 812.583 683.949 795.717 679.929 788.515C677.701 784.524 671.534 781.742 668 778.986C655.068 768.899 640.553 757.515 623 762.904C596.319 771.096 597 801.551 597 824C597 834.28 597.192 845.393 601.338 855C605.967 865.726 613.759 877.112 626 879.467C645.904 883.296 672.215 874.329 692 871.275C747.168 862.758 804.786 836.397 854 810.778C880.046 797.219 902.836 785.649 918.4 760C927.452 745.081 953.134 729.254 954.772 711C956.708 689.437 941.182 665.864 930.1 649C904.484 610.018 885.382 559.839 849.961 528.301C846.374 525.108 841.895 522.286 837.005 521.778C833.49 521.412 829.734 524.02 833 527L833 528L833 529C829.23 532.295 831.906 539.443 832 544C828.52 538.345 827.319 531.616 828.188 525C828.763 520.627 831.353 517.351 829.181 513C809.715 474.003 782.599 434.82 737 426.616C723.469 424.181 709.521 427.42 696 428z"/>
<path style="fill:#3814da; stroke:none;" d="M377.667 427.333L378.333 427.667L377.667 427.333M374.667 428.333L375.333 428.667L374.667 428.333M408 428L409 429L408 428M568.333 428.667L568.667 429.333L568.333 428.667M690.333 428.667L690.667 429.333L690.333 428.667M370 429L370 430L373 430L370 429M409 429L410 430L409 429M362 430L362 431L369 431L362 430M410 430L411 431L410 430M567 430L568 431L567 430M352 431L352 432L357 432L352 431M411 431L412 432L411 431M691 431L691 435L692 435L691 431M346.667 432.333L347.333 432.667L346.667 432.333M412 432L413 433L412 432M566 432L567 433L566 432M338 433L338 434L342 434L338 433M331.667 434.333L332.333 434.667L331.667 434.333M414 434L415 435L414 434M565 434L566 435L565 434M326.667 435.333L327.333 435.667L326.667 435.333M320.667 436.333L321.333 436.667L320.667 436.333M564 436L565 437L564 436M316.667 437.333L317.333 437.667L316.667 437.333M417 437L418 438L417 437M563 437L564 438L563 437M311 438L311 439L314 439L311 438M562.333 438.667L562.667 439.333L562.333 438.667M692 438L692 441L693 441L692 438M308.667 439.333L309.333 439.667L308.667 439.333M420 439L421 440L420 439M303 440L303 441L306 441L303 440M421 440L422 441L421 440M561 440L562 441L561 440M300.667 441.333L301.333 441.667L300.667 441.333M422 441L423 442L422 441M297 442L298 443L297 442M423 442L424 443L423 442M294.667 443.333L295.333 443.667L294.667 443.333M559 443L560 444L559 443z"/>
<path style="fill:#1f1d24; stroke:none;" d="M99 444L98 485L126 488L126 447L99 444z"/>
<path style="fill:#3814da; stroke:none;" d="M292 444L293 445L292 444M426 444L427 445L426 444M558 444L559 445L558 444M427 445L428 446L427 445M557 445L558 446L557 445M693 445L693 473L694 473L693 445M428 446L429 447L428 446M556 446L557 447L556 446M555 447L556 448L555 447M431 448L432 449L431 448M554 448L555 449L554 448z"/>
<path style="fill:#1f1d24; stroke:none;" d="M882 490L910 490C911.609 481.332 915.373 461.027 910.972 453.105C907.297 446.489 888.358 445.029 883.858 451.228C881.057 455.087 882.935 459.702 882.882 463.996C882.776 472.645 882 481.3 882 490z"/>
<path style="fill:#04dbf8; stroke:none;" d="M102 449L103 461L122 459L122 449L102 449z"/>
<path style="fill:#3814da; stroke:none;" d="M288 449L289 450L288 449M432 449L433 450L432 449M553 449L554 450L553 449z"/>
<path style="fill:#1f1d24; stroke:none;" d="M971 450L971 484L996 485L996 484L990 482L990 455L988 455L987 482L982 482L984 453L994 454C991.274 446.247 977.284 449.504 971 450z"/>
<path style="fill:#ebceae; stroke:none;" d="M163 535C154.59 534.922 146.944 542.871 140 546.985C116.169 561.106 96.3411 581.206 79.4236 603C64.9983 621.584 48.4331 639.063 41.348 662C37.2115 675.391 40 689.315 40 703C40 752.796 63.6987 805.087 98.0394 841C124.708 868.89 157.721 890.398 186.961 915.424C197.68 924.599 205.92 936.223 216.04 945.83C226.069 955.351 243.063 967.541 257 958.87C260.244 956.852 266.07 946.331 268.208 946.037C271.157 945.631 271.763 949.596 273.584 950.992C277.723 954.164 285.986 957.357 291 959.099C300.461 962.385 316.74 961.446 320.347 949.999C323.019 941.521 319.428 930.734 316 923C303.786 930.242 290.733 925.047 284 913L288 908L289 908L287 914L287 915C303.672 930.77 316.602 918.288 317 899C287.951 899 242.345 896.321 224.221 870C216.758 859.162 214.923 844.879 216.17 832C216.753 825.977 219.99 819.002 218.577 813C216.226 803.012 206.675 793.662 201.45 785C184.24 756.473 168.303 722.362 133 714C140.964 704.932 159.967 721.954 165.91 728.039C168.301 730.487 170.993 735.374 175.004 734.759C185.566 733.14 197.642 717.727 205.424 711.004C223.741 695.181 243.438 681.16 261.424 664.884C269.023 658.008 277.765 651.076 282.91 642C287.753 633.458 285.483 620.506 287.51 611C292.273 588.667 293.34 565.742 295.145 543.015C296.422 526.934 298.709 510.055 296.08 494C294.119 482.019 293.137 461.233 283.613 452.444C277.355 446.669 256.803 453.605 249 454.714C209.341 460.353 169.215 493.538 163 535z"/>
<path style="fill:#04dbf8; stroke:none;" d="M887 465L902 467L902 466L899 465L899 464L907 466C907 462.214 907.756 457.381 905.397 454.133C902.044 449.519 890.678 447.936 887.18 453.314C885.062 456.57 886.718 461.427 887 465z"/>
<path style="fill:#3814da; stroke:none;" d="M289 451L290 452L289 451M435 451L436 452L435 451M551 451L552 452L551 451M436 452L437 453L436 452M550 452L551 453L550 452z"/>
<path style="fill:#04dbf8; stroke:none;" d="M25 453L25 478C28.0931 477.993 33.9438 478.918 36.4861 476.771C40.5571 473.333 38 458.045 38 453L25 453z"/>
<path style="fill:#3814da; stroke:none;" d="M290 453L291 454L290 453M548 453L549 454L548 453z"/>
<path style="fill:#04dbf8; stroke:none;" d="M973 453C973 460.107 970.16 477.848 978 481C980.959 471.661 982.476 462.569 980 453L973 453M984 453L982 482L987 482L988 455L990 455L990 482L994 482C991.72 471.269 999.451 453.055 984 453z"/>
<path style="fill:#9706f7; stroke:none;" d="M994 453L994 456L995 456L994 453z"/>
<path style="fill:#3814da; stroke:none;" d="M439 454L440 455L439 454M547 454L548 455L547 454M291 455L292 456L291 455M440 455L441 456L440 455M546 455L547 456L546 455M442 456L443 457L442 456M544 456L545 457L544 456M292.333 457.667L292.667 458.333L292.333 457.667M443 457L444 458L443 457M543 457L544 458L543 457z"/>
<path style="fill:#1f1d24; stroke:none;" d="M986 457L987 458L986 457z"/>
<path style="fill:#3814da; stroke:none;" d="M542 458L543 459L542 458z"/>
<path style="fill:#1f1d24; stroke:none;" d="M994 458L994 468L995 468L996 458L994 458z"/>
<path style="fill:#3814da; stroke:none;" d="M446 459L447 460L446 459M293 460L294 461L293 460M448 460L449 461L448 460M539 460L540 461L539 460M449 461L450 462L449 461M537 461L538 462L537 461M450.667 462.333L451.333 462.667L450.667 462.333M535 462L536 463L535 462M294 463L295 464L294 463M452 463L453 464L452 463M532.667 463.333L533.333 463.667L532.667 463.333z"/>
<path style="fill:#04dbf8; stroke:none;" d="M108 464L109 465L108 464z"/>
<path style="fill:#3814da; stroke:none;" d="M454.667 464.333L455.333 464.667L454.667 464.333M530 464L531 465L530 464M295 465L295 468L296 468L295 465M457 465L458 466L457 465M527.667 465.333L528.333 465.667L527.667 465.333z"/>
<path style="fill:#1f1d24; stroke:none;" d="M891 465L892 466L891 465z"/>
<path style="fill:#3814da; stroke:none;" d="M459.667 466.333L460.333 466.667L459.667 466.333M525 466L526 467L525 466M463 467L464 468L463 467M522.667 467.333L523.333 467.667L522.667 467.333z"/>
<path style="fill:#9706f7; stroke:none;" d="M210 468L211 469L210 468z"/>
<path style="fill:#3814da; stroke:none;" d="M468 468L468 469L471 469L468 468M519 468L519 469L522 469L519 468M473 469L473 470L479 470L473 469M515 469L515 470L518 470L515 469z"/>
<path style="fill:#04dbf8; stroke:none;" d="M898 469L899 470L898 469z"/>
<path style="fill:#3814da; stroke:none;" d="M480 470L480 471L488 471L480 470M508 470L508 471L512 471L508 470z"/>
<path style="fill:#04dbf8; stroke:none;" d="M107 471L108 472L107 471M109 471L110 472L109 471z"/>
<path style="fill:#3814da; stroke:none;" d="M296 471L297 472L296 471M489 471L489 472L502 472L489 471z"/>
<path style="fill:#04dbf8; stroke:none;" d="M899 471L900 472L899 471M906 471L907 472L906 471M895 472C893.675 474.208 888.942 478.232 890 474L889 474L889 481L887 480L887 481L887 486L906 485L904 475L903 475L902 472L897 474L898 472L895 472z"/>
<path style="fill:#1f1d24; stroke:none;" d="M992 472L993 473L992 472z"/>
<path style="fill:#04dbf8; stroke:none;" d="M109 473L109 474L112 474L109 473M104 475L105 476L104 475z"/>
<path style="fill:#3814da; stroke:none;" d="M297.333 475.667L297.667 476.333L297.333 475.667z"/>
<path style="fill:#04dbf8; stroke:none;" d="M106 476L107 477L106 476z"/>
<path style="fill:#1f1d24; stroke:none;" d="M992 476L993 477L992 476z"/>
<path style="fill:#04dbf8; stroke:none;" d="M112 478L113 479L112 478z"/>
<path style="fill:#9706f7; stroke:none;" d="M196 478L197 479L196 478z"/>
<path style="fill:#04dbf8; stroke:none;" d="M103 479L104 480L103 479z"/>
<path style="fill:#9706f7; stroke:none;" d="M195 479L196 480L195 479z"/>
<path style="fill:#3814da; stroke:none;" d="M298 479L298 482L299 482L298 479M692 480L692 498L693 498L692 480z"/>
<path style="fill:#1f1d24; stroke:none;" d="M992 480L993 481L992 480z"/>
<path style="fill:#04dbf8; stroke:none;" d="M109 481L110 482L109 481z"/>
<path style="fill:#1f1d24; stroke:none;" d="M890 481L891 482L890 481z"/>
<path style="fill:#9706f7; stroke:none;" d="M191 483L192 484L191 483M190 484L191 485L190 484z"/>
<path style="fill:#3814da; stroke:none;" d="M299 484L299 487L300 487L299 484z"/>
<path style="fill:#9706f7; stroke:none;" d="M189 485L190 486L189 485M188 486L189 487L188 486z"/>
<path style="fill:#3814da; stroke:none;" d="M300 488L300 493L301 493L300 488z"/>
<path style="fill:#9706f7; stroke:none;" d="M185 490L186 491L185 490z"/>
<path style="fill:#1f1d24; stroke:none;" d="M63 543C63.0044 536.291 63.9996 529.716 64 523L64 510C63.9894 503.4 55.6314 486.651 48.0316 498.318C43.8392 504.754 48.9622 523.223 48.9992 531C49.0131 533.919 48.0817 538.94 50.0278 541.397C52.3705 544.354 59.6502 543 63 543z"/>
<path style="fill:#3814da; stroke:none;" d="M300 496L301 497L300 496z"/>
<path style="fill:#9706f7; stroke:none;" d="M180 497L181 498L180 497z"/>
<path style="fill:#3814da; stroke:none;" d="M301 497L301 525L302 525L301 497z"/>
<path style="fill:#1f1d24; stroke:none;" d="M967 542L967 537L960 520L968 520L971 526C970.439 523.644 970.072 521.429 970.015 518.998C969.621 502.181 983.611 510.093 994 511C991.715 518.526 978.597 516.411 972 518L973 522L993 517L994 523L981 529L982 532L975 532L975 531L979 530L972 528L972 534L971 534L970 529C963.871 543.605 980.296 552.731 992.657 546.062C999.937 542.134 997.003 525.79 997 519C996.999 515.97 997.576 511.969 995.397 509.51C989.271 502.601 976.795 504.652 969 502.414C964.332 501.074 958.138 498.132 953.148 499.357C948.357 500.534 951.255 511.175 951.076 515C950.441 528.554 947.367 548.196 967 542M97 502C97.0276 511.993 98 521.955 98 532C98 535.073 96.9534 540.694 99.0278 543.258C102.146 547.112 122.22 546.366 125.258 542.682C128.214 539.097 127 532.314 127 528C127 522.099 128.243 514.343 124.91 509.108C120.151 501.631 104.834 502.336 97 502M897 504.637C880.605 509.278 881 516.987 881 532C881 535.477 879.522 543.53 882.603 545.972C886.936 549.406 902.846 548.106 907.891 546.682C913.58 545.076 912 536.487 912 532C912 520.154 915.633 499.363 897 504.637z"/>
<path style="fill:#04dbf8; stroke:none;" d="M26 506C26 514.333 25.9568 522.667 26.0008 531C26.0131 533.332 25.4564 538.276 28.375 539.248C32.2339 540.535 31.9851 534.044 31.9992 532C32.0592 523.309 32.2894 514.615 31 506L26 506M101 506L101 510L102 510L103 510L103 506L101 506M109 506L110 507L109 506M888 533L891 532L888 534L888 538L891 539L892 539L894 536L891 537L892 534L896 541L899 539L900 539L900 541L901 541L904 538L903 541L907 541L905 527L905 526L907 508C901.044 506.015 886.637 511.454 885 518C883.782 522.873 888.377 531.491 888 533M961 508L961 510L968 515L967 507L961 508M974 507L973 511L987 512L987 513L977 514C978.177 519.491 993.53 517.44 994 511L974 507z"/>
<path style="fill:#3814da; stroke:none;" d="M954.333 508.667L954.667 509.333L954.333 508.667z"/>
<path style="fill:#1f1d24; stroke:none;" d="M963.333 508.667L963.667 509.333L963.333 508.667z"/>
<path style="fill:#3814da; stroke:none;" d="M973 508L974 509L973 508M971 509L970 525L974 523L974 522L972 518L977 516L973 515L973 509L971 509z"/>
<path style="fill:#1f1d24; stroke:none;" d="M973 511L973 515L977 516L987 513C982.679 508.901 978.299 509.124 973 511z"/>
<path style="fill:#3814da; stroke:none;" d="M691 510L691 551L692 551C692 539.304 695.511 520.75 691 510z"/>
<path style="fill:#04dbf8; stroke:none;" d="M101 511L102 512L101 511M101 513L102 514L101 513z"/>
<path style="fill:#1f1d24; stroke:none;" d="M991 513L989 514L989 515L991 513z"/>
<path style="fill:#3814da; stroke:none;" d="M991 517L991 520L993 517L991 517z"/>
<path style="fill:#04dbf8; stroke:none;" d="M992 519C984.428 521.301 973.638 518.714 971 528C980.251 528.73 985.772 527.467 994 523L992 519z"/>
<path style="fill:#1f1d24; stroke:none;" d="M900 521L901 522L900 521M902.667 522.333L903.333 522.667L902.667 522.333z"/>
<path style="fill:#04dbf8; stroke:none;" d="M993 524C989.615 528.921 979.034 539.149 992 541L991 538L994 534L991 536L991 531C994.261 530.513 994.235 526.657 993 524z"/>
<path style="fill:#1f1d24; stroke:none;" d="M889 526L890 527L889 526M899 526L900 527L899 526M902.333 526.667L902.667 527.333L902.333 526.667M887 527L888 528L887 527M893 528L894 529L893 528M899 528L900 529L899 528M904 528L901 532L905 535L904 530L906 531L904 528M889.333 529.667L889.667 530.333L889.333 529.667M897 529L898 530L897 529z"/>
<path style="fill:#3814da; stroke:none;" d="M975 531L975 532L982 532L981 529L975 531z"/>
<path style="fill:#1f1d24; stroke:none;" d="M891 530L892 531L891 530M893 531L894 534L893 531M896.667 531.333L897.333 531.667L896.667 531.333z"/>
<path style="fill:#3814da; stroke:none;" d="M962 531L961 533L963 533L962 531z"/>
<path style="fill:#04dbf8; stroke:none;" d="M903 532L904 533L903 532M971.333 532.667L971.667 533.333L971.333 532.667z"/>
<path style="fill:#1f1d24; stroke:none;" d="M895 533L895 535L897 535L895 533M898 533L898 538L902 534L898 533z"/>
<path style="fill:#3814da; stroke:none;" d="M300 534L300 539L301 539L300 534z"/>
<path style="fill:#1f1d24; stroke:none;" d="M890 535L891 536L890 535M161 536L151 570L152 570C155.433 561.15 163.924 545.537 161 536M903 536L906 538L906 537L903 536z"/>
<path style="fill:#04dbf8; stroke:none;" d="M965 536L966 537L965 536z"/>
<path style="fill:#1f1d24; stroke:none;" d="M900 538L901 539L900 538z"/>
<path style="fill:#04dbf8; stroke:none;" d="M973 538L973 539L982 540L973 538M983 538L985 540L983 538z"/>
<path style="fill:#9706f7; stroke:none;" d="M997 544L997 547L998 547L997 544z"/>
<path style="fill:#3814da; stroke:none;" d="M299 546L299 555L300 555L299 546M22 547L22 550L23 550L22 547z"/>
<path style="fill:#9706f7; stroke:none;" d="M997 548L998 549L997 548M997 550L998 551L997 550M997 552L997 562L998 562L997 552z"/>
<path style="fill:#3814da; stroke:none;" d="M298 556L299 557L298 556M298 558L298 562L299 562L298 558M22 561L23 562L22 561z"/>
<path style="fill:#04dbf8; stroke:none;" d="M104 562L103 569C105.477 566.549 106.087 564.913 104 562z"/>
<path style="fill:#3814da; stroke:none;" d="M692 562L692 575L693 575L692 562z"/>
<path style="fill:#04dbf8; stroke:none;" d="M26 565L26 591C32.4244 585.878 29.2074 575.095 30 568L31 568L30.5255 586.826L25.8897 595.736L35 599C35 588.077 40.4308 565.051 26 565z"/>
<path style="fill:#1f1d24; stroke:none;" d="M997 604C992.265 592.844 998.687 577.126 993.687 567.318C991.813 563.643 976.48 563.507 974.028 566.603C971.624 569.638 972.109 579.149 972.015 583C971.885 588.31 970.243 597.854 972.603 602.683C975.524 608.657 992.46 606.423 997 604z"/>
<path style="fill:#3814da; stroke:none;" d="M297 567L297 574L298 574L297 567z"/>
<path style="fill:#04dbf8; stroke:none;" d="M889 571L906 601L907 601L906 567L889 571z"/>
<path style="fill:#1f1d24; stroke:none;" d="M30 568L27 592C32.8311 588.631 32.6451 573.478 30 568z"/>
<path style="fill:#3814da; stroke:none;" d="M296 581L296 585L297 585L296 581M693 583L693 592L694 592L693 583M26 586L27 587L26 586M26 589L27 590L26 589z"/>
<path style="fill:#1f1d24; stroke:none;" d="M995 589L995 592L996 592L995 589z"/>
<path style="fill:#3814da; stroke:none;" d="M26 591L27 592L26 591M295 592L295 598L296 598L295 592z"/>
<path style="fill:#04dbf8; stroke:none;" d="M979 592L979 601L984 602C983.983 597.217 984.097 593.547 979 592z"/>
<path style="fill:#9706f7; stroke:none;" d="M996 592L996 603L997 603L996 592z"/>
<path style="fill:#3814da; stroke:none;" d="M694 596L694 600L695 600L694 596M294 600L294 604L295 604L294 600M993 600L994 601L993 600M293 605L293 610L294 610L293 605M695 606L695 612L696 612L695 606z"/>
<path style="fill:#9706f7; stroke:none;" d="M997 608L997 615L998 615L997 608z"/>
<path style="fill:#3814da; stroke:none;" d="M292 614L292 618L293 618L292 614M696 616L696 621L697 621L696 616z"/>
<path style="fill:#9706f7; stroke:none;" d="M997 617L997 636L998 636L997 617z"/>
<path style="fill:#3814da; stroke:none;" d="M697 622L697 629L698 629L697 622M291 623L291 627L292 627L291 623z"/>
<path style="fill:#1f1d24; stroke:none;" d="M971 627L971 667C976.299 667.418 987.847 670.575 992.397 666.972C997.277 663.107 993.499 644.879 994.128 639C994.455 635.942 996.369 632.291 993.548 629.858C989.092 626.015 976.663 627.004 971 627z"/>
<path style="fill:#04dbf8; stroke:none;" d="M25 662L34 664C37.5749 656.02 36.7267 642.653 35.9414 634.019C35.5965 630.228 31.4338 626.749 27.5887 629.269C21.7786 633.076 25 655.681 25 662z"/>
<path style="fill:#3814da; stroke:none;" d="M290 631L290 636L291 636L290 631z"/>
<path style="fill:#04dbf8; stroke:none;" d="M984 631L980 635L981 661L986 663L986 631L984 631z"/>
<path style="fill:#3814da; stroke:none;" d="M698 634L698 640L699 640L698 634z"/>
<path style="fill:#1f1d24; stroke:none;" d="M983 636L984 637L983 636z"/>
<path style="fill:#3814da; stroke:none;" d="M289 638L289 646L290 646L289 638z"/>
<path style="fill:#04dbf8; stroke:none;" d="M976.333 638.667L976.667 639.333L976.333 638.667z"/>
<path style="fill:#1f1d24; stroke:none;" d="M982 638L983 639L982 638z"/>
<path style="fill:#3814da; stroke:none;" d="M356 643L357 643L357 640L361 643C361.108 638.69 357.146 639.586 356 643z"/>
<path style="fill:#1f1d24; stroke:none;" d="M357 640C357.924 647.067 362.663 653.575 365.626 660C371.904 673.619 377.632 687.419 383.975 701C386.533 706.476 390.66 718.036 396.326 720.879C401.139 723.295 410.714 716.83 415 714.742C429.772 707.547 444.518 700.128 459 692.373C464.377 689.494 471.914 687.674 473 681C466.46 682.166 461.781 686.393 456 689.334C443.711 695.585 431.333 701.587 419 707.753C414.178 710.164 403.584 717.799 398.093 715.068C392.723 712.397 390.018 704.039 387.576 699C380.877 685.181 375.703 670.701 368.756 657C365.847 651.262 363.634 642.07 357 640z"/>
<path style="fill:#3814da; stroke:none;" d="M699 641L699 646L700 646L699 641z"/>
<path style="fill:#1f1d24; stroke:none;" d="M982.333 641.667L982.667 642.333L982.333 641.667z"/>
<path style="fill:#04dbf8; stroke:none;" d="M976.333 642.667L976.667 643.333L976.333 642.667z"/>
<path style="fill:#3814da; stroke:none;" d="M362 644L363 645L362 644z"/>
<path style="fill:#1f1d24; stroke:none;" d="M706.667 644.333L707.333 644.667L706.667 644.333z"/>
<path style="fill:#3814da; stroke:none;" d="M358 645L359 646L358 645z"/>
<path style="fill:#9706f7; stroke:none;" d="M706 645L707 646L706 645z"/>
<path style="fill:#3814da; stroke:none;" d="M271 662L290 660L285 647L271 662M290 647L291 648L290 647M359 647L360 648L359 647M364.333 647.667L364.667 648.333L364.333 647.667z"/>
<path style="fill:#1f1d24; stroke:none;" d="M983 647L984 648L983 647z"/>
<path style="fill:#3814da; stroke:none;" d="M699 648L699 651L700 651L699 648z"/>
<path style="fill:#9706f7; stroke:none;" d="M707 648L708 649L707 648z"/>
<path style="fill:#3814da; stroke:none;" d="M291 649L292 650L291 649M360 649L361 650L360 649M365 650L366 651L365 650M292 651L293 652L292 651M361 651L362 652L361 651M366 652L367 653L366 652M698 652L699 653L698 652M362 653L363 654L362 653M293 654L294 655L293 654M367 654L368 655L367 654M697 654L698 655L697 654M363.333 655.667L363.667 656.333L363.333 655.667M294.333 656.667L294.667 657.333L294.333 656.667M368 656L369 657L368 656z"/>
<path style="fill:#04dbf8; stroke:none;" d="M710 656C705.148 661.604 698.289 664.802 693.379 670.184C677.998 687.045 664.47 708.914 651.921 728C646.047 736.934 637.076 746.234 635 757C655.136 757.88 669.189 777.119 685 787C688.229 774.916 702.845 766.637 708.015 755C710.356 749.732 708.721 742.633 709.089 737C710.272 718.866 709.057 699.975 711.424 682C712.433 674.338 715.797 662.186 710 656z"/>
<path style="fill:#1f1d24; stroke:none;" d="M982 656L983 657L982 656M26 657C28.1588 660.054 30.5498 659.941 34 659L26 657z"/>
<path style="fill:#3814da; stroke:none;" d="M364 657L365 658L364 657M695 657L696 658L695 657M295.333 658.667L295.667 659.333L295.333 658.667M369 658L370 659L369 658M694 658L695 659L694 658M712 658L713 659L712 658M365.333 659.667L365.667 660.333L365.333 659.667M370 660L371 661L370 660M693 660L694 661L693 660M366 662L367 663L366 662M371 662L372 663L371 662M692 662L693 663L692 662M33 686C33.127 682.346 33.1995 678.588 33.936 675C34.8684 670.457 33.8996 657.835 26.5139 665.434C19.4043 672.75 23.1681 685.965 33 686M297 663L298 664L297 663M367.333 663.667L367.667 664.333L367.333 663.667M372 663L373 664L372 663M691 664L692 665L691 664M298 665L299 666L298 665M373.333 665.667L373.667 666.333L373.333 665.667z"/>
<path style="fill:#ebceae; stroke:none;" d="M718 665L714 749L735 729.17L772 703C759.215 687.458 735.134 675.367 718 665z"/>
<path style="fill:#3814da; stroke:none;" d="M299.333 666.667L299.667 667.333L299.333 666.667M368 666L369 667L368 666M690 666L691 667L690 666M244 685C246.99 685.894 251.122 685.726 253.258 688.318C256.068 691.727 255 697.903 255 702C255 714.141 256.157 726.957 254.576 739C253.995 743.419 251.574 757.923 255.603 760.958C258.565 763.188 267.272 761 271 761C267.759 755.535 265.103 749.474 266 743L275 745C275 726.994 278.173 705.527 274 688C277.451 686.565 285.887 680.717 289.397 683.708C292.615 686.45 290.204 695.605 290.139 699.424C289.884 714.281 290 729.134 290 744L318 747L319 746L318 741L317 741L317 745C313.522 736.296 314.861 728.006 313.572 719C311.701 705.935 307.348 694.515 300.936 683C297.884 677.519 297.088 668.823 289.995 667.344C278.96 665.042 272.55 672.718 263 676.034C254.719 678.909 250.087 677.037 244 685M369 668L370 669L369 668M374 668L375 669L374 668M689 668L690 669L689 668M300 669L301 670L300 669M370 670L371 671L370 670M688 670L689 671L688 670M301 671L302 672L301 671M375 671L376 672L375 671M371.333 672.667L371.667 673.333L371.333 672.667M687 672L688 673L687 672M302 673L303 674L302 673M376 673L377 674L376 673M686 673L687 674L686 673z"/>
<path style="fill:#9706f7; stroke:none;" d="M997 673L997 691L998 691L997 673z"/>
<path style="fill:#3814da; stroke:none;" d="M372.333 674.667L372.667 675.333L372.333 674.667M685 674L686 675L685 674M303 675L304 676L303 675M377 676L378 677L377 676M684 676L685 677L684 676M304 677L305 678L304 677M373 677L374 678L373 677M683 677L684 678L683 677M378 678L379 679L378 678M305 679L306 680L305 679M374.333 679.667L374.667 680.333L374.333 679.667M379.333 679.667L379.667 680.333L379.333 679.667M681 679L682 680L681 679M22 680L22 685L23 685L22 680M306 681L307 682L306 681M469 681L470 682L469 681M375.333 682.667L375.667 683.333L375.333 682.667M380.333 682.667L380.667 683.333L380.333 682.667M467 682L468 683L467 682M473 682L474 683L473 682M465 683L466 684L465 683M678.333 683.667L678.667 684.333L678.333 683.667M308.333 685.667L308.667 686.333L308.333 685.667M376 685L377 686L376 685M381 685L382 686L381 685M462 685L463 686L462 685M677 685L678 686L677 685z"/>
<path style="fill:#1f1d24; stroke:none;" d="M970 685L970 728C976.169 726.872 989.735 731.093 994.396 726.397C997.005 723.767 995.307 719.186 995.089 716C994.587 708.661 998.724 690.925 991.581 686.179C986.653 682.905 975.743 685 970 685z"/>
<path style="fill:#04dbf8; stroke:none;" d="M25 686L25 720L34 718L33 686L25 686z"/>
<path style="fill:#3814da; stroke:none;" d="M470 686L471 687L470 686M676 686L677 687L676 686M377 687L378 688L377 687M382 687L383 688L382 687M459 687L460 688L459 687M309 688L310 689L309 688M457.667 688.333L458.333 688.667L457.667 688.333M466 688L467 689L466 688z"/>
<path style="fill:#04dbf8; stroke:none;" d="M973 688L974 721L975 721L975 688L973 688M984 688L983 689L986 691L984 688z"/>
<path style="fill:#3814da; stroke:none;" d="M378 689L379 690L378 689M383 689L384 690L383 689M455 689L456 690L455 689M464 689L465 690L464 689M674 689L675 690L674 689z"/>
<path style="fill:#04dbf8; stroke:none;" d="M243 717L252 718C252 712.6 254.849 694.687 250.397 691.18C247.449 688.857 243.89 690.745 243.228 694.059C241.798 701.224 243 709.698 243 717z"/>
<path style="fill:#3814da; stroke:none;" d="M310.333 690.667L310.667 691.333L310.333 690.667M453 690L454 691L453 690M462 690L463 691L462 690M379.333 691.667L379.667 692.333L379.333 691.667M451 691L452 692L451 691M460 691L461 692L460 691z"/>
<path style="fill:#04dbf8; stroke:none;" d="M241.333 692.667L241.667 693.333L241.333 692.667z"/>
<path style="fill:#3814da; stroke:none;" d="M384 692L385 693L384 692M449 692L450 693L449 692M458 692L459 693L458 692z"/>
<path style="fill:#04dbf8; stroke:none;" d="M984 692L983 694L983 695L987 692L984 692M279 693L280 694L279 693z"/>
<path style="fill:#3814da; stroke:none;" d="M311 693L312 694L311 693M447 693L448 694L447 693M457 693L458 694L457 693M671 693L672 694L671 693z"/>
<path style="fill:#9706f7; stroke:none;" d="M996 693L997 694L996 693z"/>
<path style="fill:#1f1d24; stroke:none;" d="M31 694L32 695L31 694z"/>
<path style="fill:#3814da; stroke:none;" d="M202 733L206 719C193.386 723.342 182.026 737.103 185.418 751C187.018 757.554 192.483 763.655 196.36 769C199.884 773.857 202.603 781.903 209 783L201 768L200 768L200 770L199 770L199.028 756.318L209 754L233 753L233 754C217.073 758.015 219.908 776.671 218.91 790C218.414 796.615 214.529 803.232 222 807C223.347 800.053 224.288 792.272 227.715 786C230.38 781.122 235.719 776.914 237.486 771.714C239.235 766.569 238 759.388 238 754C238 743.278 239 732.71 239 722C239 717.673 241.52 694.401 234.867 694.878C216.693 696.181 229.976 722.685 223.972 731.682C220.568 736.784 207.23 733.003 202 733M380 694L381 695L380 694M445.667 694.333L446.333 694.667L445.667 694.333M454.667 694.333L455.333 694.667L454.667 694.333M312 695L313 696L312 695M385 695L386 696L385 695M444 695L445 696L444 695M453 695L454 696L453 695z"/>
<path style="fill:#9706f7; stroke:none;" d="M996 695L996 710L997 710L996 695z"/>
<path style="fill:#3814da; stroke:none;" d="M381 696L382 697L381 696M386 696L387 697L386 696M441.667 696.333L442.333 696.667L441.667 696.333M450.667 696.333L451.333 696.667L450.667 696.333z"/>
<path style="fill:#04dbf8; stroke:none;" d="M983.333 696.667L983.667 697.333L983.333 696.667M985 696L986 697L985 696M285 697L286 698L285 697z"/>
<path style="fill:#3814da; stroke:none;" d="M313 697L314 698L313 697M382 697L383 698L382 697M439 697L440 698L439 697M448 697L449 698L448 697M668 697L669 698L668 697z"/>
<path style="fill:#04dbf8; stroke:none;" d="M279 698L280 699L279 698z"/>
<path style="fill:#3814da; stroke:none;" d="M387 698L388 699L387 698M437 698L438 699L437 698M667 698L668 699L667 698z"/>
<path style="fill:#04dbf8; stroke:none;" d="M278 716L287 717L287 699C277.418 699.738 278 708.453 278 716z"/>
<path style="fill:#3814da; stroke:none;" d="M314.333 699.667L314.667 700.333L314.333 699.667M383.333 699.667L383.667 700.333L383.333 699.667M436 699L437 700L436 699M445 699L446 700L445 699M666 699L667 700L666 699z"/>
<path style="fill:#04dbf8; stroke:none;" d="M983 699L983 700L985 705L986 705L986 699L983 699z"/>
<path style="fill:#3814da; stroke:none;" d="M388.333 700.667L388.667 701.333L388.333 700.667M434 700L435 701L434 700M443 700L444 701L443 700M431.667 701.333L432.333 701.667L431.667 701.333M441 701L442 702L441 701M665 701L666 702L665 701M315 702L316 703L315 702M429 702L430 703L429 702M439 702L440 703L439 702M427 703L428 704L427 703M436.667 703.333L437.333 703.667L436.667 703.333M221.667 704.333L222.333 704.667L221.667 704.333M316 704L317 705L316 704M385 704L386 705L385 704M390.333 704.667L390.667 705.333L390.333 704.667M425 704L426 705L425 704M435 704L436 705L435 704z"/>
<path style="fill:#04dbf8; stroke:none;" d="M983 704L984 705L983 704z"/>
<path style="fill:#3814da; stroke:none;" d="M317 705L318 706L317 705M423 705L424 706L423 705M433 705L434 706L433 705M662 705L663 706L662 705M386 706L387 707L386 706M421 706L422 707L421 706M430 706L431 707L430 706z"/>
<path style="fill:#04dbf8; stroke:none;" d="M983.667 706.333L984.333 706.667L983.667 706.333z"/>
<path style="fill:#3814da; stroke:none;" d="M318.333 707.667L318.667 708.333L318.333 707.667M387 707L388 708L387 707M391 707L392 708L391 707M429 707L430 708L429 707M218 708L209 717L218 708z"/>
<path style="fill:#04dbf8; stroke:none;" d="M205 729L221 729L221 708C211.837 712.406 205.008 718.649 205 729z"/>
<path style="fill:#3814da; stroke:none;" d="M392 708L393 709L392 708M417 708L418 709L417 708M427 708L428 709L427 708M660 708L661 709L660 708z"/>
<path style="fill:#04dbf8; stroke:none;" d="M985.333 708.667L985.667 709.333L985.333 708.667z"/>
<path style="fill:#3814da; stroke:none;" d="M388 709L389 710L388 709M415 709L416 710L415 709M425 709L426 710L425 709M319 710L320 711L319 710M393 710L394 711L393 710M413 710L414 711L413 710M423 710L424 711L423 710z"/>
<path style="fill:#04dbf8; stroke:none;" d="M982 710C980.931 714.492 979.79 720.026 984 723L984 710L982 710z"/>
<path style="fill:#3814da; stroke:none;" d="M389 711L390 712L389 711M394 711L395 712L394 711M411 711L412 712L411 711M421 711L422 712L421 711M658 711L659 712L658 711M320 712L321 713L320 712M409 712L410 713L409 712M419 712L420 713L419 712M657 712L658 713L657 712z"/>
<path style="fill:#1f1d24; stroke:none;" d="M983 712L984 713L983 712z"/>
<path style="fill:#3814da; stroke:none;" d="M390 713L391 714L390 713M395 713L396 714L395 713M406.667 713.333L407.333 713.667L406.667 713.333M417 713L418 714L417 713M321 714L322 715L321 714M396 714L397 715L396 714M404 714L405 715L404 714M415 714L416 715L415 714z"/>
<path style="fill:#1f1d24; stroke:none;" d="M983 714L984 715L983 714z"/>
<path style="fill:#3814da; stroke:none;" d="M391 715L392 716L391 715M401.667 715.333L402.333 715.667L401.667 715.333M413 715L414 716L413 715M322 716L323 717L322 716M398.667 716.333L399.333 716.667L398.667 716.333M411 716L412 717L411 716M654 716L655 717L654 716M408.667 717.333L409.333 717.667L408.667 717.333M323.333 718.667L323.667 719.333L323.333 718.667M393 718L394 719L393 718M407 718L408 719L407 718M653 718L654 719L653 718M394 719L395 720L394 719M404.667 719.333L405.333 719.667L404.667 719.333z"/>
<path style="fill:#04dbf8; stroke:none;" d="M317 720L319 738C331.098 737.802 326.397 759.195 330.018 766.772C332.02 770.961 339.925 771.674 344 773C338.894 756.577 327.94 733.206 317 720z"/>
<path style="fill:#3814da; stroke:none;" d="M324.333 720.667L324.667 721.333L324.333 720.667M399 721L400 722L399 721M651 721L652 722L651 721M24 725C24 739.179 20.9819 757.406 25 771C28.2909 770.777 33.85 770.054 36.3966 772.603C38.4668 774.676 37.9945 778.34 38 781C38.0134 787.488 40.7531 802.511 36.3966 807.682C33.602 810.999 27.8519 810 24 810L24 833L37 831C28.848 843.96 32.2978 864.66 38 878L22 876L23 897L38.3573 898.603L39.0015 910L39 938L23 937L23 960C27.5806 959.424 33.7153 958.112 37.5664 961.589C41.5098 965.149 40 973.245 40 978C40 992.629 40.5583 1002.22 23 1000L23 1024L77 1024C78.5709 987.413 76.4363 950.609 78.0394 914C78.929 893.683 79.1324 873.384 78.8611 853C78.7483 844.525 80.1502 835.365 78.5316 827C76.2767 815.345 65.4904 803.734 60.2593 793C48.8677 769.625 40.7203 747.411 36 722L24 725M325 722L326 723L325 722M397 722L398 723L397 722M650 722L651 723L650 722z"/>
<path style="fill:#9706f7; stroke:none;" d="M997 722L997 757L998 757L997 722z"/>
<path style="fill:#3814da; stroke:none;" d="M326 724L327 725L326 724M327 725L328 726L327 725z"/>
<path style="fill:#04dbf8; stroke:none;" d="M279 729L279 745L287 744L287 728L279 729z"/>
<path style="fill:#3814da; stroke:none;" d="M646 728L647 729L646 728z"/>
<path style="fill:#04dbf8; stroke:none;" d="M242 759C244.626 758.998 249.112 759.746 250.972 757.397C253.593 754.086 253.598 733.911 250.972 730.603C245.962 724.292 242.208 734.32 242.039 738C241.902 740.998 242.084 744.002 241.914 747C241.684 751.074 241.837 754.93 242 759z"/>
<path style="fill:#3814da; stroke:none;" d="M329.333 730.667L329.667 731.333L329.333 730.667M644 731L645 732L644 731z"/>
<path style="fill:#ebceae; stroke:none;" d="M184 732L181 739L184 732z"/>
<path style="fill:#3814da; stroke:none;" d="M643 732L644 733L643 732M642 733L643 734L642 733M331.333 734.667L331.667 735.333L331.333 734.667M641 735L642 736L641 735M332 736L333 737L332 736M322 737L321 738L326 749C325.999 744.018 326.636 739.844 322 737M333 738L334 739L333 738M639 738L640 739L639 738M334 739L335 740L334 739M335 741L336 742L335 741M637 741L638 742L637 741M336.333 743.667L336.667 744.333L336.333 743.667M636 743L637 744L636 743M635 745L636 746L635 745z"/>
<path style="fill:#04dbf8; stroke:none;" d="M279 747L284 746L279 747z"/>
<path style="fill:#3814da; stroke:none;" d="M337 746L338 747L337 746M634 747L635 748L634 747M933 747C912.557 765.128 912 788.683 912 814C906.469 814.703 886.797 820.724 883.028 815.593C880.475 812.117 882.233 805.17 881 801L860.028 813.329L859 828L859 865L858 1024L933 1024C933 955.97 934 888.04 934 820C934 802.718 933.283 785.264 934.039 768C934.325 761.486 937.242 752.599 933 747M338 748L339 749L338 748M633 749L634 750L633 749M339 750L340 751L339 750M632 751L633 752L632 751M340 752L341 753L340 752M630 754L631 755L630 754M342 756L343 757L342 756M624 757L624 758L628 758L624 757z"/>
<path style="fill:#04dbf8; stroke:none;" d="M203 758L203 773L207 771C208.81 776.703 211.234 777.658 217 778L219 758L203 758z"/>
<path style="fill:#3814da; stroke:none;" d="M343 758L344 759L343 758M622 758L623 759L622 758M618 759L618 760L621 760L618 759z"/>
<path style="fill:#9706f7; stroke:none;" d="M997 759L998 760L997 759z"/>
<path style="fill:#3814da; stroke:none;" d="M344 760L345 761L344 760M616 760L617 761L616 760M614 761L615 762L614 761z"/>
<path style="fill:#9706f7; stroke:none;" d="M997 761L997 764L998 764L997 761z"/>
<path style="fill:#3814da; stroke:none;" d="M242 762L242 769L247 762L242 762M345 762L346 763L345 762M612 762L613 763L612 762M346 764L347 765L346 764M609 764L610 765L609 764M608 765L609 766L608 765z"/>
<path style="fill:#9706f7; stroke:none;" d="M997 765L997 776L998 776L997 765z"/>
<path style="fill:#3814da; stroke:none;" d="M332 775L331 775L329 778L330 776L329 776L328 776L331 781L326 782L327 786C324.266 784.359 325.139 783.326 323 786L316 782L317 784L316 784L265 773L266 770L267 772L268 772L266 769L267 766C258.782 766.963 249.693 768.998 243.174 774.474C232.28 783.624 227.903 798.748 224.986 812C220.036 834.488 214.366 862.612 237.17 877.945C246.459 884.191 257.139 887.407 268 889.46C295.54 894.664 338.254 903.837 358.476 877.7C367.875 865.552 365.534 847.315 367.047 833.001C368.281 821.325 370.727 804.748 364.951 794.015C357.381 779.945 342.32 783.173 332 775M268 766L268 768L270 768L270 766L268 766M273 766L275 768L273 766M347 766L348 767L347 766M607 766L608 767L607 766z"/>
<path style="fill:#1f1d24; stroke:none;" d="M263 767L266 770L266 767L263 767z"/>
<path style="fill:#3814da; stroke:none;" d="M271 767L272 768L271 767M606 767L607 768L606 767M348 768L349 769L348 768M605 768L606 769L605 768M274 769L275 770L274 769z"/>
<path style="fill:#1f1d24; stroke:none;" d="M262.333 770.667L262.667 771.333L262.333 770.667z"/>
<path style="fill:#3814da; stroke:none;" d="M349 770L350 771L349 770M603 770L604 771L603 770z"/>
<path style="fill:#1f1d24; stroke:none;" d="M995 779C1000.49 773.511 977.275 767.237 973.028 772.603C969.094 777.574 973.362 795.404 972.911 802C972.723 804.739 971.155 808.969 973.032 811.397C974.715 813.573 978.605 812.995 981 813C994.817 813.028 993.927 806.181 994.001 794C994.031 788.959 995.506 783.978 995 779z"/>
<path style="fill:#3814da; stroke:none;" d="M312 772L313 773L312 772M314.667 772.333L315.333 772.667L314.667 772.333M317 772L318 773L317 772M350 772L351 773L350 772M602 772L603 773L602 772z"/>
<path style="fill:#9706f7; stroke:none;" d="M659 772L660 773L659 772z"/>
<path style="fill:#04dbf8; stroke:none;" d="M25 773L25 796L34 796L34 774L25 773z"/>
<path style="fill:#1f1d24; stroke:none;" d="M263 773L264 774L263 773z"/>
<path style="fill:#3814da; stroke:none;" d="M601 773L602 774L601 773M316 774L317 775L316 774M319 774L320 775L319 774M323 774L323 775L327 777L323 774M351 774L352 775L351 774z"/>
<path style="fill:#04dbf8; stroke:none;" d="M975 774L975 785L976 785L978 774L975 774z"/>
<path style="fill:#3814da; stroke:none;" d="M352 775L353 776L352 775M600.333 775.667L600.667 776.333L600.333 775.667M318 776L317 778L318 776M320 776L321 779L322 779L320 776M323 776L324 777L323 776M354 776L355 777L354 776M599 777L600 778L599 777M313 778L314 779L313 778M326 778L327 779L326 778z"/>
<path style="fill:#1f1d24; stroke:none;" d="M331 778L332 779L331 778z"/>
<path style="fill:#3814da; stroke:none;" d="M357 778L358 779L357 778M598.333 778.667L598.667 779.333L598.333 778.667M358 779L359 780L358 779M323 780L325 782L325 780L323 780M22 781L23 782L22 781z"/>
<path style="fill:#1f1d24; stroke:none;" d="M334 781L335 782L334 781z"/>
<path style="fill:#3814da; stroke:none;" d="M597 781L598 782L597 781z"/>
<path style="fill:#04dbf8; stroke:none;" d="M206 783L214 794C215.45 786.188 215.109 781.39 206 783z"/>
<path style="fill:#1f1d24; stroke:none;" d="M328.667 782.333L329.333 782.667L328.667 782.333z"/>
<path style="fill:#3814da; stroke:none;" d="M361 782L362 783L361 782M22 783L22 792L23 792L22 783M362 783L363 784L362 783M596.333 783.667L596.667 784.333L596.333 783.667z"/>
<path style="fill:#1f1d24; stroke:none;" d="M320 784L321 785L320 784z"/>
<path style="fill:#3814da; stroke:none;" d="M364 784L365 785L364 784M366 786L367 787L366 786M595.333 786.667L595.667 787.333L595.333 786.667z"/>
<path style="fill:#9706f7; stroke:none;" d="M995 786L996 787L995 786z"/>
<path style="fill:#3814da; stroke:none;" d="M367 787L368 788L367 787z"/>
<path style="fill:#04dbf8; stroke:none;" d="M975 787L976 788L975 787z"/>
<path style="fill:#1f1d24; stroke:none;" d="M996.333 787.667L996.667 788.333L996.333 787.667z"/>
<path style="fill:#3814da; stroke:none;" d="M368 788L369 789L368 788z"/>
<path style="fill:#9706f7; stroke:none;" d="M995 788L995 798L996 798L995 788z"/>
<path style="fill:#3814da; stroke:none;" d="M594.333 789.667L594.667 790.333L594.333 789.667M369 790L370 791L369 790M370 792L371 793L370 792M593 792L593 795L594 795L593 792M371 793L372 794L371 793M372 795L373 796L372 795M373.333 797.667L373.667 798.333L373.333 797.667z"/>
<path style="fill:#04dbf8; stroke:none;" d="M25 806C26.6512 805.999 28.3587 806.096 30.0054 805.941C40.8509 804.923 25.4739 791.748 25 806z"/>
<path style="fill:#3814da; stroke:none;" d="M592 799L592 833L593 833L592 799z"/>
<path style="fill:#1f1d24; stroke:none;" d="M996 800L996 806L997 806L996 800z"/>
<path style="fill:#04dbf8; stroke:none;" d="M975 802L977 805L975 802M978 802L978 803L979 805L982 805L978 802z"/>
<path style="fill:#3814da; stroke:none;" d="M374 803L374 811L375 811L374 803z"/>
<path style="fill:#04dbf8; stroke:none;" d="M983 804L983 805L987 805L983 804M988 803L989 804L988 803z"/>
<path style="fill:#3814da; stroke:none;" d="M985 810L985 811L989 810L985 810z"/>
<path style="fill:#1f1d24; stroke:none;" d="M996.333 809.667L996.667 810.333L996.333 809.667z"/>
<path style="fill:#3814da; stroke:none;" d="M22 812L22 815L23 815L22 812M374 813L375 814L374 813M22 816L23 817L22 816z"/>
<path style="fill:#04dbf8; stroke:none;" d="M804 839L807.089 904L815 1024L853 1024L854 817C838.322 819.795 817.643 830.733 804 839z"/>
<path style="fill:#3814da; stroke:none;" d="M376 824L377 825L376 824M377 825L378 826L377 825z"/>
<path style="fill:#1f1d24; stroke:none;" d="M967 826L967 827L971 828L970 825L967 826M54.1335 827.028C50.2634 829.247 50.0526 834.054 50.0039 838C49.8761 848.351 48.1838 860.851 50.3441 870.981C51.3081 875.501 55.5565 877.868 59.811 875.529C63.8015 873.335 63.973 869.035 63.9992 865C64.067 854.561 66.5636 840.04 63.4275 830.059C62.1821 826.095 57.6293 825.024 54.1335 827.028z"/>
<path style="fill:#3814da; stroke:none;" d="M378 826L379 827L378 826M379 827L380 828L379 827z"/>
<path style="fill:#1f1d24; stroke:none;" d="M951 829C951 839.297 951.538 849.642 951.487 859.911C951.466 864.079 950.438 871.938 953.179 875.397C955.035 877.738 959.392 876.999 962 877C970.41 877.004 978.638 877.038 987 877.83C989.555 878.072 994.145 878.736 995.968 876.4C998.357 873.337 994.597 864.807 994.568 861C994.522 854.854 997.266 840.443 992.911 835.603C990.659 833.101 985.09 833.831 982 833.424C971.664 832.063 961.338 830.335 951 829z"/>
<path style="fill:#04dbf8; stroke:none;" d="M55 872C60.8746 870.718 59.9997 866.134 60 861L60 830C54.3782 830.93 54.1942 834.945 54.1559 840C54.0764 850.479 53.9019 861.615 55 872z"/>
<path style="fill:#3814da; stroke:none;" d="M82 830L81 1024L149 1024L149 932L148.397 892L132 874L131 874C126.238 877.452 103.336 882.145 99.0278 876.477C94.387 870.37 98.8393 856.281 97.811 849.015C96.7838 841.756 87.6507 834.01 82 830M380.333 830.667L380.667 831.333L380.333 830.667M22.3333 831.667L22.6667 832.333L22.3333 831.667z"/>
<path style="fill:#04dbf8; stroke:none;" d="M373 831C369.897 855.552 371.373 875.97 349 891.786C342.346 896.49 327.873 894.673 323.089 900.514C312.879 912.977 329.018 936.146 325.606 951C323.104 961.891 312.142 960.604 307.028 967.563C304.737 970.68 306 977.312 306 981L338 990C347.961 960.632 351.672 929.872 363.73 901C367.677 891.548 371.234 876.989 381 872L376 831L373 831M33 873L33 857L33 847C33 844.564 32.3531 827.672 26.0278 835.604C23.9504 838.209 25 843.888 25 847C25 856.004 20.8116 872.855 33 873z"/>
<path style="fill:#1f1d24; stroke:none;" d="M911 882C911 870.967 912 860.056 912 849C912 845.28 912.998 839.58 910.821 836.318C907.541 831.403 887.319 834.103 883.603 837.742C878.365 842.873 882 864.856 882 872C882 874.791 881.078 879.991 883.603 881.971C888.146 885.534 904.332 880.412 911 882z"/>
<path style="fill:#3814da; stroke:none;" d="M381 835L381 838L382 838L381 835M22.3333 837.667L22.6667 838.333L22.3333 837.667z"/>
<path style="fill:#1f1d24; stroke:none;" d="M996 838L996 860L997 860L996 838z"/>
<path style="fill:#3814da; stroke:none;" d="M959 849L964 844L968 844L967 847C970.145 845.604 970.822 842.819 967 842L969 840C962.32 838.098 960.462 843.546 959 849z"/>
<path style="fill:#ebceae; stroke:none;" d="M800 840C781.718 850.671 760.213 857.017 740 862.909C730.574 865.656 721.84 869.675 712 871L708.228 919L702 1024L810 1024C807.004 1007.86 808.033 990.387 806.911 974C804.902 944.666 803.471 915.278 801.145 885.961C800.064 872.342 805.272 852.562 800 840z"/>
<path style="fill:#3814da; stroke:none;" d="M22 841L22 846L23 846L22 841M382 841L382 845L383 845L382 841M593.333 842.667L593.667 843.333L593.333 842.667M594.333 846.667L594.667 847.333L594.333 846.667M22 847L22 861L23 861L22 847M595.333 850.667L595.667 851.333L595.333 850.667M959 853L961 866C964.534 868.566 967.318 871.37 971 868L968 867L971 866L970 862L963 864L969 860C966.922 856.457 964.723 857.132 961 858L961 857L970 855C968.111 849.174 963.475 850.788 959 853z"/>
<path style="fill:#04dbf8; stroke:none;" d="M101 853L101 873L118 873C120.856 865.437 107.349 855.9 101 853z"/>
<path style="fill:#3814da; stroke:none;" d="M383 853L383 859L384 859L383 853M597.333 855.667L597.667 856.333L597.333 855.667M598 859L599 860L598 859M599 860L600 861L599 860M600 862L601 863L600 862M22 863L23 864L22 863z"/>
<path style="fill:#1f1d24; stroke:none;" d="M748 863L747 873L748 873L748 863z"/>
<path style="fill:#3814da; stroke:none;" d="M601 864L602 865L601 864M602 866L603 867L602 866z"/>
<path style="fill:#1f1d24; stroke:none;" d="M741 866C738.306 872.385 736.354 888.808 741.738 894.411C750.929 903.976 766.9 894.055 767 883L765 883C764.299 904.591 735.728 888.999 748 876L748 875L744 876L747 893C738.379 890.286 738.708 873.606 744 868L741 866z"/>
<path style="fill:#3814da; stroke:none;" d="M22 867L23 868L22 867M384 867L384 871L385 871L384 867M958 867L962 870L962 869L958 867z"/>
<path style="fill:#1f1d24; stroke:none;" d="M102 868L103 869L102 868M108 869L109 870L108 869z"/>
<path style="fill:#3814da; stroke:none;" d="M604 869L605 870L604 869z"/>
<path style="fill:#1f1d24; stroke:none;" d="M967 869L968 870L967 869z"/>
<path style="fill:#3814da; stroke:none;" d="M22.3333 870.667L22.6667 871.333L22.3333 870.667z"/>
<path style="fill:#1f1d24; stroke:none;" d="M108 871L109 872L108 871z"/>
<path style="fill:#3814da; stroke:none;" d="M383 872L384 873L383 872M606 872L607 873L606 872M970.667 872.333L971.333 872.667L970.667 872.333M995 872L994 875L995 872M22.3333 873.667L22.6667 874.333L22.3333 873.667M605 873L606 874L605 873z"/>
<path style="fill:#04dbf8; stroke:none;" d="M705 873L669 879.159L620 883L651.508 980L663 1024L696 1024C696 986.717 703.097 949.342 704.015 912C704.298 900.444 709.584 883.925 705 873z"/>
<path style="fill:#3814da; stroke:none;" d="M600.667 874.333L601.333 874.667L600.667 874.333M596.667 875.333L597.333 875.667L596.667 875.333M593.667 876.333L594.333 876.667L593.667 876.333z"/>
<path style="fill:#9706f7; stroke:none;" d="M22 877L22 905L23 905L22 877z"/>
<path style="fill:#3814da; stroke:none;" d="M590.667 877.333L591.333 877.667L590.667 877.333M342 995C350.988 1001.47 356.534 1013.17 358 1024L477 1024L484 988C491.935 992.412 492.296 1004.9 494.378 1013C495.191 1016.16 496.005 1021.84 499.302 1023.4C502.955 1025.13 509.041 1024 513 1024L545 1024L659 1024C653.292 996.418 643.417 968.78 634.745 942C627.725 920.321 621.978 896.496 610 877C595.777 879.944 582.08 885.432 568 888.964C533.839 897.533 495.116 902.893 460 898.844C440.478 896.593 419.863 894.557 401 888.795C396.109 887.3 383.658 879.778 379.213 882.072C371.751 885.921 367.425 903.552 364.975 911C355.91 938.569 348.542 966.724 342 995z"/>
<path style="fill:#1f1d24; stroke:none;" d="M762 877L765 880L762 877z"/>
<path style="fill:#3814da; stroke:none;" d="M385 878L386 879L385 878M585 878L585 879L588 879L585 878M386.667 879.333L387.333 879.667L386.667 879.333M582.667 879.333L583.333 879.667L582.667 879.333M389.667 880.333L390.333 880.667L389.667 880.333M578 880L578 881L581 881L578 880z"/>
<path style="fill:#1f1d24; stroke:none;" d="M752.667 880.333L753.333 880.667L752.667 880.333M755 880L757 882L757 880L755 880z"/>
<path style="fill:#3814da; stroke:none;" d="M392.667 881.333L393.333 881.667L392.667 881.333M576.667 881.333L577.333 881.667L576.667 881.333M395 882L395 883L398 883L395 882M572.667 882.333L573.333 882.667L572.667 882.333M399.667 883.333L400.333 883.667L399.667 883.333M566 883L566 884L570 884L566 883M402.667 884.333L403.333 884.667L402.667 884.333M562 884L562 885L565 885L562 884M407 885L408 886L407 885M409 885L410 886L409 885M559.667 885.333L560.333 885.667L559.667 885.333M413.667 886.333L414.333 886.667L413.667 886.333M543 886L544 887L543 886M546 886L546 887L551 887L546 886M556 886L556 887L559 887L556 886M420.667 887.333L421.333 887.667L420.667 887.333M540.667 887.333L541.333 887.667L540.667 887.333M426 888L426 889L430 889L426 888M539 888L540 889L539 888M431 889L431 890L435 890L431 889M533 889L533 890L537 890L533 889M436 890L436 891L440 891L436 890M525 890L525 891L529 891L525 890M442 891L442 892L447 892L442 891M518 891L518 892L524 892L518 891M452 892L452 893L457 893L452 892M510 892L510 893L517 893L510 892M461 893L461 894L465 894L461 893M495 893L495 894L505 894L495 893z"/>
<path style="fill:#9706f7; stroke:none;" d="M996 893L996 899L997 899L996 893z"/>
<path style="fill:#3814da; stroke:none;" d="M472 894L472 895L494 895L472 894z"/>
<path style="fill:#04dbf8; stroke:none;" d="M154 896L154 1024L184 1024C188.155 995.76 198.297 967.004 231 967C227.735 958.754 218.043 954.489 212.17 948C196.12 930.266 176.289 905.934 154 896z"/>
<path style="fill:#1f1d24; stroke:none;" d="M23 897L23 937L39 938L39.0154 909L38.3927 898.028L23 897M97 897C97 907.001 96.6761 917.044 97.7253 927C98.0629 930.203 97.1636 934.887 99.0278 937.682C101.757 941.774 120.769 943.217 123.972 939.258C128.446 933.728 125.003 914.056 125 907C124.999 904.383 125.75 899.891 123.397 898.028C118.554 894.192 103.075 897 97 897M903 898.428C898.06 899.009 886.36 898.218 883.028 902.589C880.477 905.935 882 913.997 882 918C882 931.824 879.999 947.091 899 944.816C915.553 942.834 912 928.835 912 916C912 908.011 914.318 897.099 903 898.428M996 938L996 900C990.36 899.884 978.403 896.226 973.603 900.028C971.436 901.745 972.005 905.58 972 908C971.988 913.653 968.971 933.304 973.603 936.972C977.883 940.362 990.679 938 996 938z"/>
<path style="fill:#04dbf8; stroke:none;" d="M101 900L102 921C109.707 920.45 112.729 922.124 119 926L121 923L120 900L101 900z"/>
<path style="fill:#9706f7; stroke:none;" d="M996 900L997 901L996 900z"/>
<path style="fill:#04dbf8; stroke:none;" d="M26 901L26 933L35 934L36 901L26 901z"/>
<path style="fill:#3814da; stroke:none;" d="M996 901L996 916L997 916L996 901z"/>
<path style="fill:#04dbf8; stroke:none;" d="M975.333 904.667L975.667 905.333L975.333 904.667z"/>
<path style="fill:#9706f7; stroke:none;" d="M22 906L22 982L23 982L23 930L22 906M996 916L996 934L997 934L996 916z"/>
<path style="fill:#3814da; stroke:none;" d="M995 920L995 933L996 933L995 920z"/>
<path style="fill:#9706f7; stroke:none;" d="M316 923L317 924L316 923M317 925L318 930L319 930L317 925z"/>
<path style="fill:#04dbf8; stroke:none;" d="M118 927L119 928L118 927M118 929L118 932L119 932L118 929z"/>
<path style="fill:#9706f7; stroke:none;" d="M319 930L321 949L322 949C322 942.589 323.208 935.292 319 930M996 938L996 959L997 959L996 938M320 950L321 951L320 950M319 952L320 953L319 952M318 954L319 955L318 954z"/>
<path style="fill:#1f1d24; stroke:none;" d="M97 955C97.0011 964.988 97.408 975.048 98.0895 985C98.2945 987.994 98.1206 993.979 100.028 996.397C103.287 1000.53 118.775 1000.35 122.121 996.566C127.776 990.172 126.038 974.955 125.999 967C125.984 963.867 126.399 959.262 123.486 957.179C117.585 952.96 103.941 955 97 955z"/>
<path style="fill:#9706f7; stroke:none;" d="M317 955L318 956L317 955M316 956L317 957L316 956M314.667 957.333L315.333 957.667L314.667 957.333z"/>
<path style="fill:#1f1d24; stroke:none;" d="M882 959C882 968.975 877.938 990.239 883.028 998.852C886.896 1005.4 902.89 1004.04 907.772 999.581C914.16 993.749 915.673 964.353 907.867 959.43C900.746 954.939 889.909 959 882 959z"/>
<path style="fill:#9706f7; stroke:none;" d="M312.667 958.333L313.333 958.667L312.667 958.333z"/>
<path style="fill:#1f1d24; stroke:none;" d="M23 960L23 1000C41.0266 1003.35 40 992.391 40 978C40 973.55 41.5782 965.112 38.2577 961.589C34.7018 957.815 27.4302 959.178 23 960z"/>
<path style="fill:#04dbf8; stroke:none;" d="M100 959L101 969L111 968L111 969C104.637 969.333 101.393 969.843 101 977L111 979L110 976L115 979L116 976L116 975L115 972L112 970L116 967L113 969L112 969L116 966L115 962L117 966L120 964L121 967C127.133 956.21 105.425 959 100 959z"/>
<path style="fill:#9706f7; stroke:none;" d="M309.667 959.333L310.333 959.667L309.667 959.333z"/>
<path style="fill:#1f1d24; stroke:none;" d="M972 959C970.694 969.338 970.653 979.635 971.894 990C972.287 993.278 972.198 998.95 975.317 1000.97C980 1004 991.069 999.386 996 998L995 959L972 959z"/>
<path style="fill:#9706f7; stroke:none;" d="M296 960L297 961L296 960M305.667 960.333L306.333 960.667L305.667 960.333z"/>
<path style="fill:#1f1d24; stroke:none;" d="M113 961L114 962L113 961M120.333 961.667L120.667 962.333L120.333 961.667z"/>
<path style="fill:#04dbf8; stroke:none;" d="M886 961L886 982L906 985C908.042 980.181 910.888 965.799 904.697 962.742C899.745 960.298 891.538 962.028 886 961M994 966L993 961C989.002 961.033 976.571 960.318 974.603 964.318C972.764 968.056 972.173 991.255 977.911 990.534C983.716 989.805 979.907 976.852 981.452 973.108C983.287 968.661 989.987 967.588 994 966M24 962L24 986C27.4821 985.682 32.7463 985.906 35.3966 983.262C38.1475 980.517 38.5719 965.543 35.3966 963.028C32.7768 960.953 27.145 962 24 962z"/>
<path style="fill:#1f1d24; stroke:none;" d="M111 962L114 965L111 962M108 963L109 964L108 963M118 963L119 964L118 963z"/>
<path style="fill:#9706f7; stroke:none;" d="M996 963L996 971L997 971L996 963z"/>
<path style="fill:#1f1d24; stroke:none;" d="M104 964L106 966L104 964M102 965L103 966L102 965M107 965L108 966L107 965M110 965L109 967L111 967L110 965z"/>
<path style="fill:#04dbf8; stroke:none;" d="M238 965C239.117 970.354 241.944 971.147 247 970C244.593 966.15 242.496 965.147 238 965M117 967L117 969L119 967L117 967z"/>
<path style="fill:#1f1d24; stroke:none;" d="M104 970L102 975L104 973L108 972L108 977L115 976L110 971L112 975L109 971L104 970z"/>
<path style="fill:#3814da; stroke:none;" d="M992 979L994 971C985.677 968.808 982.89 976.989 992 979z"/>
<path style="fill:#04dbf8; stroke:none;" d="M104 971L105 972L104 971z"/>
<path style="fill:#3814da; stroke:none;" d="M189 1024C203.845 1023.95 201.319 998.85 212 990L200 1024L353 1024C347.146 1003.38 331.356 985.606 307.985 986.316C296.768 986.657 286.317 989.367 275 988.58C270.243 988.25 266.609 989.672 263 986L256 985L254 975C249.404 974.045 245.207 971.462 241 975C236.972 972.85 233.452 973.214 229 972.911C199.123 970.874 192.616 999.427 189 1024z"/>
<path style="fill:#9706f7; stroke:none;" d="M996 972L997 973L996 972z"/>
<path style="fill:#3814da; stroke:none;" d="M240 973L241 974L240 973z"/>
<path style="fill:#04dbf8; stroke:none;" d="M109 974L110 975L109 974z"/>
<path style="fill:#1f1d24; stroke:none;" d="M248.667 974.333L249.333 974.667L248.667 974.333z"/>
<path style="fill:#3814da; stroke:none;" d="M252 974L253 975L252 974z"/>
<path style="fill:#1f1d24; stroke:none;" d="M106 975L107 976L106 975z"/>
<path style="fill:#3814da; stroke:none;" d="M259 976L255 979L260 980L259 976M262 976L263 977L262 976z"/>
<path style="fill:#1f1d24; stroke:none;" d="M246 977L247 978L246 977M241 980L242 981L241 980z"/>
<path style="fill:#3814da; stroke:none;" d="M22 982L23 983L22 982z"/>
<path style="fill:#9706f7; stroke:none;" d="M704 982L705 983L704 982M22 983L22 996L23 996L22 983z"/>
<path style="fill:#3814da; stroke:none;" d="M267 985L268 986L267 985M889.667 985.333L890.333 985.667L889.667 985.333z"/>
<path style="fill:#04dbf8; stroke:none;" d="M36 986L30 996L37 997L36 986z"/>
<path style="fill:#3814da; stroke:none;" d="M298 986L299 987L298 986M285 987L286 988L285 987M896 987C898.025 990.266 900.16 990.548 903 988L896 987z"/>
<path style="fill:#1f1d24; stroke:none;" d="M484 988L477 1024L485 1024L489 1011L490 1011L493 1024L498 1024C495.391 1014.98 493.43 991.436 484 988M210 990C203.151 1000.39 200.087 1012.1 197 1024C201.73 1022.45 201.481 1018.29 202.771 1014C205.24 1005.78 210.541 998.472 212 990L210 990M35 993L36 994L35 993z"/>
<path style="fill:#04dbf8; stroke:none;" d="M24 994L25 995L24 994M28 994L27 996L29 996L28 994z"/>
<path style="fill:#3814da; stroke:none;" d="M22.3333 996.667L22.6667 997.333L22.3333 996.667z"/>
<path style="fill:#9706f7; stroke:none;" d="M22 998L22 1023L23 1023L22 998z"/>
<path style="fill:#ebceae; stroke:none;" d="M944 1008L944 1024L960 1024L960 1008L944 1008z"/>
<path style="fill:#04dbf8; stroke:none;" d="M960 1008L960 1024L992 1024L992 1008L960 1008z"/>
<path style="fill:#3814da; stroke:none;" d="M1008 1008L1008 1024L1024 1024L1024 1008L1008 1008M482.333 1011.67L482.667 1012.33L482.333 1011.67z"/>
<path style="fill:#04dbf8; stroke:none;" d="M489 1011L485 1024L493 1024L489 1011z"/>
<path style="fill:#9706f7; stroke:none;" d="M809 1017L809 1022L810 1022L809 1017z"/>
</svg>
